<?xml version="1.0" encoding="utf-8"?>
<!-- Generator: Adobe Illustrator 18.1.0, SVG Export Plug-In . SVG Version: 6.00 Build 0)  -->
<!DOCTYPE svg PUBLIC "-//W3C//DTD SVG 1.1//EN" "http://www.w3.org/Graphics/SVG/1.1/DTD/svg11.dtd">
<svg version="1.1" id="Layer_1" xmlns="http://www.w3.org/2000/svg" xmlns:xlink="http://www.w3.org/1999/xlink" x="0px" y="0px"
	 viewBox="0 0 600 431.2" enable-background="new 0 0 600 431.2" xml:space="preserve">
<path d="M601.1,137.2c-4.4-1.3-8.9-2.3-13-4.1c-3.4-1.5-4.4-0.2-5.2,2.5c-1.2,4.4-2.5,8.8-4.5,13.1c-2.6-5.2,1.6-10.1,1.1-15.2
	c-7.5-4.6-9.6-3.5-10.1,4.9c-0.2,3.2-1,6.5-2.9,9.6c0-6.1,0-12.2,0-18.1c-7.7-2.3-9.8-0.7-9.7,6.6c0,2.8-0.1,5.6-0.3,8.4
	c-0.1,1.4-0.4,2.7-0.6,4.1c-0.9-0.8-1.7-1.5-2.6-2.3c0-3.6,0.2-7.3-0.1-10.9c-0.2-1.8-1-4.8-2.2-5.2c-5.9-1.7-11.9-3.2-17.9-3.8
	c-3.7-0.4-8.2-2-11.3,2c-1.5-1.7-3-3.5-5.6-6.4c-2.4,2.5-5.9,5.3-8.4,8.8c-2.4,3.3-5.3,4-8.9,3.6c-3.8-0.5-5.6,1.1-7.2,4.6
	c-1.2,2.7-4.2,4.8-6.8,6.5c-7.5,4.8-14,10-19.1,17.7c-4.3,6.5-7.2,13.2-8.8,20.4c-2,8.6-9.1,14.6-9.7,23.1c-4-16-8.1-32-11.9-47.1
	c21.7-3.1,39.8-14,54.6-31.9c15.1-18.2,19-39.3,18.6-62.2c2.8,4.3,5.6,8.6,8.4,12.9c-6.5,5.5-9.4,13.3,0.9,22.5
	c-4.8,2.7-7.1,6.4-4,11.6c1.8,3,4,4.1,8,2.5c6.6-2.7,4.7-6.7,2.7-11.5c2.1-1.6,4.2-3.3,6.3-5c5.4,3.5,7.8,7.9,7.1,14.5
	c-0.6,5.7,5.8,10.5,12.4,10.4c5.5-0.1,9.2-4.1,9.4-10.3c0.1-2.9,0-5.7,0-9.5c4.2,4.5,8.6,8.3,14.2,5.6c2.5-1.2,3.7-5.1,6-8.4
	c3.9,1.3,8.9,2.1,13.3-3c1.1-1.3,5.1,0,7.8,0.1c0,3.2,0,6.5,0,9.7c-3.3,1.4-6.6,2.9-11.1,4.9c4.6,2.5,7.8,4.3,11.1,6.1
	c0,0.8,0,1.6,0,2.4c-2.6-1.3-5.2-2.5-7.6-3.7c-1.8,2.2-3.2,4.3-5,6c-2.8,2.8-3.2,4.8,1,6.6c4,1.6,7.7,3.8,11.6,5.7
	C601.1,136.4,601.1,136.8,601.1,137.2z M575.2,116c-0.2-0.4-0.5-0.8-0.7-1.2c-1.7,1-4.5,1.8-4.9,3.2c-0.6,1.8,0.1,5.3,1.4,6.2
	c3.2,2.1,7.1,4.2,10.6,4c1.8-0.1,4.1-5,4.5-8c0.3-1.7-2.4-4.7-4.4-5.5C580,113.8,577.4,115.4,575.2,116z"/>
<path d="M1.1,156.7c8.7,0,14.2-6.2,20.1-11c8.9-7.1,16.6-15.3,21.5-25.8c6.8-14.6,11.3-29.5,8.9-45.9c-0.2-1.1,0.2-2.2,0.5-4.5
	c3.2,4.6,5.8,8.3,8.2,11.7c-1.9,4.8-5.5,9.6-5.1,14c0.4,4.3,5,8.1,7.8,12.3c-1.9,1.8-4.2,4-6.9,6.6c1.7,2.5,3.4,5.1,5.2,7.7
	c10.9-8.5,10.9-8.5,9.1-15.3c1.7-0.7,3.4-1.5,5-2.2c3.5,3.1,5.8,5.9,5,11.3c-1,6.3,5.4,12,11.6,11.9c8.1-0.2,11.5-3.9,11.1-12.2
	c-0.1-1.8-0.3-3.5-0.5-6.1c2.2,1.5,3.8,2.6,5.6,3.6c5.2,3.1,10.6,0.6,11.2-5.4c0.3-3.3,1.5-3.7,4.1-2.2c4.1,2.4,7.3,1.3,10.6-1.9
	c1.3-1.3,4-1.2,6.1-1.5c1-0.2,2,0.2,3,0.1c11.3-1.4,17.4,2,23.4,14.3c-5.2-4.7-9.2-8.5-13.3-12.1c-0.7-0.6-2-0.7-3-1
	c-0.2,1-0.4,2.1-0.6,3.3c-1.4-0.2-3.2-0.4-4.9-0.7c-0.2,0.3-0.5,0.7-0.7,1c5.1,4.8,10.2,9.6,15.4,14.3c-0.3,0.4-0.6,0.7-1,1.1
	c-4.1-3.2-7.9-6.8-12.4-9.3c-2.1-1.2-6.6-1.1-8,0.3c-2.5,2.7-1,5.9,2.5,7.8c2.3,1.2,4.6,2.5,6.5,4.1c1.4,1.2,2.1,3,2,5
	c-3.7-2.4-7.2-6-11.3-6.9c-4.7-1-7.3,3.5-8.8,7.6c-2.7,7.1-5.2,14.2-7.9,21.3c-0.1,0.4-0.9,0.6-1.4,0.7c-0.3,0.1-0.7-0.2-0.9-0.2
	c1.3-5.7,2.6-11.3,3.9-17.2c-12.8-3-12.3,6.6-12.8,15.1c-0.7-0.3-1.3-0.7-2-1c0.6-5.3,1.2-10.5,1.9-17.1c-2.9,0-6.4-0.9-9,0.3
	c-1.5,0.7-1.9,4.6-2.3,7.2c-0.4,3.1-0.1,6.2-0.1,9.3c-0.8,0-1.7,0-2.5,0c0-3.9-0.3-7.8,0.1-11.6c0.5-4.9-2.7-5.6-6.1-6.4
	c-2.5-0.6-5-1.5-7.6-1.5c-7-0.1-14.6-4.4-20.2,3.6c-0.8-2.1-1-4.4-2.1-4.8c-1.1-0.5-3.2,0.5-4.5,1.3c-1.5,1-3.2,2.4-3.6,3.9
	c-1.1,4.2-3.1,5.2-7.4,4.3c-1.9-0.4-4.7,1.6-6.6,3.2c-4.1,3.3-7.8,7.2-11.9,10.5c-7.3,5.9-14.7,11.7-20.2,19.3
	c-2.1,2.9-3.1,6.6-4.5,9.9C1.1,172.9,1.1,164.8,1.1,156.7z M109.4,123.1c1.8,2.6,3.2,6.2,5.8,7.8c2.8,1.6,7.2,2.6,9.6-1.3
	c1.6-2.6,2.2-5.9,2.5-9c0.1-0.7-3.2-2.8-4.5-2.5C118.6,119.1,114.7,121,109.4,123.1z"/>
<path d="M601.1,252.6c-2.6-0.1-5.1-0.3-7.7-0.4c-0.8,0-1.9,0.5-2.3,0.2c-4-3.5-8.7-6.6-11.5-10.9c-3.6-5.5-5.9-12-8.5-18.2
	c-3.1-7.3-6.8-9.1-14.6-6.7c-2.4,0.8-4.8,1.7-7.6,2.7c2.4,5.7-3.6,5-5.9,7.5c0,0,0.2-0.2,0.2-0.2c-10.2,0.5-19.7-1.9-29.5-4.9
	c-14.1-4.3-28.7-7-43.1-10.6c-4.2-1-8.3-2.6-12.5-3.9c0.2-0.8,0.5-1.6,0.7-2.3c4.4,1,8.9,1.8,13.2,3c17.3,4.6,34.5,9.6,51.8,13.9
	c3.6,0.9,7.8-0.3,11.9-1.2c-22.7-16.2-48-27.4-72.4-40.2c0.4-0.8,0.9-1.6,1.3-2.5c25.3,13.3,50.5,26.5,75.8,39.8
	c0.5-0.6,0.9-1.2,1.4-1.7c-19.3-20.7-41.5-38.4-62.8-57c24.3,13.7,42.9,34.1,63.1,53.3c-0.2-4.2-0.4-7.5-0.6-10.8
	c0,0-0.1,0.1-0.1,0.1c1.6,0.9,3.1,1.9,4.6,2.8c0.7-1,1.9-2.5,2.5-3.4c2.7,0.6,4.8,1,8.2,1.7c0.6,0.9,2.1,3.1,3.6,5.3
	c0.7-0.1,1.4-0.1,2-0.2c5-24.1,5.8-48.9,10.5-73c0.8,0.1,1.6,0.2,2.5,0.3c-3.4,25.2-6.7,50.4-10.1,75.6c0.9,0.2,1.7,0.4,2.6,0.6
	c3.1-6.6,6.2-13.2,9.4-19.8c0.4-0.2,0.9-0.3,1.3-0.5c0.5,3,1,6,1.5,9.1c0.5,2.7,0.3,5.8,1.5,8.1c2.4,4.7,5,9.7,8.8,13.2
	c2.4,2.3,7,2.2,10.7,3.2C601.1,234,601.1,243.3,601.1,252.6z"/>
<path d="M251.3-1.2c0.4,5.2,0.4,10.5,1.3,15.7c0.4,2.4,2.4,4.4,4.3,7.7c-0.2,0.8-1.1,3.1-1.6,5.4c-0.3,1.5-0.7,3.6,0,4.7
	c3.8,5.7,7.8,11.3,11.9,16.8c2.2,3,4.8,5.8,6.8,10.3c-5.1,0-10.4,0.9-15.3-0.2c-4.6-1-8.6-1.7-13.2-0.1c-2.9,1-6.4,0.2-9.6,0.1
	c-1.5-0.1-3.3-1.1-4.6-0.6c-5.1,1.9-10,4.3-15.1,6.3c-7,2.7-14.1,5.2-21.2,7.8c-0.4-0.7-0.8-1.5-1.2-2.2c1.4-1.1,2.8-2.2,4.1-3.5
	c2.1-2,4-4.1,6.1-6.2c0.9-0.9,2.1-2.4,3-2.4c5,0.3,7.7-3.1,8.8-6.8c1.9-6.2,5.6-11.5,4.8-19c-0.8-8.5,2.5-17.3,3.5-26.1
	c0.3-2.5-1.3-5.2-2-7.8C231.9-1.2,241.6-1.2,251.3-1.2z M230.6,10c0.2,4.9,4.9,10.8,8.6,10.6c6-0.4,9.6-4,9.5-9.4
	c-0.1-4-5.2-8.8-9.1-8.7C233.9,2.6,230.5,5.5,230.6,10z"/>
<path d="M1.1,321.9c6.3,6,13,4.5,20.6,0.6c0.9,7.5,1.7,14.3,2.5,21c0.1,1,0,2.3,0.6,2.8c4.5,3.9,4.6,9,4.3,14.3c0,0.6,0,1.5,0.3,1.7
	c5.3,3.4,6.2,9,8.2,14.4c1.6,4.2,5.9,7.3,8.8,11c1.5,1.9,2.5,4.1,3.4,5.5c-4.8-0.3-9-0.6-13.2-1c-1-0.1-2.1-0.2-2.8-0.7
	c-4.5-3.6-8.9-4-13.6-0.3c-0.9,0.7-3.2,1.2-3.9,0.7c-4.7-4-9.9-3.5-15.2-2C1.1,367.2,1.1,344.5,1.1,321.9z M21.7,342
	c0-4.7-3.7-9-7.8-9.1c-4.5-0.1-9.8,4.3-9.8,8c0.1,4,5.9,10.2,9.6,10.2C17.5,351,21.7,346.3,21.7,342z"/>
<path d="M1.1,110.5c11.7-7.2,19.6-18.2,27.7-28.9c1.3-1.8,2.5-3.7,4.2-5.1c1-0.8,3-1.3,4.2-0.9c1.1,0.4,2.6,2.1,2.6,3.3
	c0.1,18.5-6.1,34.6-17.6,49.1c-5.7,7.2-13.9,9.6-21.1,14C1.1,131.6,1.1,121.1,1.1,110.5z"/>
<path d="M243.9,384.9c0.4,2.8,0.9,5.6,1.3,8.4c0.5,0.1,1,0.2,1.5,0.2c0.7-1.9,1.6-3.7,2.1-5.6c1.4-5.5,5.1-9.4,10.4-9.9
	c6.8-0.7,11.4,3,11.9,10.3c1.1,13.9,2.4,27.9-1.7,41.6c-0.8,0-1.6,0-2.4,0c0.8-8.1,1.8-16.2,2.3-24.3c0.1-1.9-2.2-5.8-2.7-5.7
	c-5.9,1.4-13-1.8-17.8,5c-2.8,4-6.4,8.8-10.7,10.3c-8.7,2.9-14.7,8.8-20.9,14.8c-1.6,0-3.2,0-4.9,0c11.4-11.1,26.8-17.5,36.4-30.6
	c-10.6,4.7-19,13.9-31.6,13.7c5.7-2.7,11.5-5.3,17.1-8.1c1.9-1,3.4-2.7,5.7-4.6c-12.8,1.6-24.4,3-36,4.6
	c-11.5,1.6-23.1,3.4-34.6,4.5c23.3-7.5,48.8-3.9,72.5-16.2c-24.7-2.4-48.2-4.8-71.7-7.1c0-0.5,0-1,0-1.5c11.4,0.7,22.8,1.3,34.2,2.1
	c11.5,0.8,23,1.7,34.7,1.2c-11.1-4.8-22.1-9.6-33.9-14.7c12.3-0.3,20.9,10.2,32.8,8.1C240,382.6,241.9,383.7,243.9,384.9z"/>
<path d="M601.1,279.4c-5.6,5.8-12,10.5-15.7,18.4c-2.1,4.5-7.8,7.3-11.2,10.2c-3.7-0.8-6.5-1.7-9.4-2c-3.1-0.3-3.8-1.4-3.4-4.7
	c1.4-10.5,2.5-21,3.1-31.5c0.2-3.9-1.3-7.8-1.7-11.8c-0.3-3.5-0.1-7-0.1-11.1c-3.4,0.2-7,0.2-10.6,0.6c-3.3,0.4-6.5,1.2-10,1
	c-2.5,1.6-3.8,5.6-8.6,3.2c-0.8-0.4-3.8,2.9-5.3,4.8c-2.7,3.5-4.2,8.4-10.5,8c-1.4-4.9,1.6-13.4-10.1-12.2c1.6-1.8,2.3-3.1,3.3-3.5
	c11.2-3.8,22.4-7.4,33.6-11c0.4-0.1,0.8-0.2,1.2-0.1c7.8,1.7,15.7,3.4,24.6,5.4c-4.5,3.1-6.4,4.6-2.6,8.7c2.1,2.3,1.6,7.4,1.3,11.2
	c-0.8,9.9-2,19.8-3.1,29.7c-0.3,3.1-0.7,6.2-1.1,9.9c7.4-3.5,9.5-10,12-16.2c3.7-9,7.3-18,11-27c0.2-0.4,0.8-0.6,2.7-0.3
	c-5.6,14.2-11.1,28.4-16.9,43.2c2.9,2.4,4.4,0.1,6.5-2.7c6.1-7.9,12.5-15.4,18.9-23.1c0.4-0.5,1.4-0.6,2.2-0.9
	C601.1,276.9,601.1,278.1,601.1,279.4z"/>
<path d="M1.1,258.7c4.6,4.2,11.8,4.7,14.4,12.2c1,3,7.3,7.1,9.3,6.3c3.7-1.5,6.6-6.1,8.9-10c1.1-1.9-0.1-5-0.2-8.2
	c0.8-0.3,2.2-1.1,3.6-1.5c6.4-2,7.3-1.4,5.9,5.1c-1.2,5.8,2.8,6.7,6.5,8.2c1.8,0.7,3.8,1.1,5.1,1.5c-4,2.8-10.2,4.9-10.8,8
	c-1.3,6.9-6.3,10.7-9.7,15.7c-6.3-3.5-7.1-3.2-15.4,4.9c-6-5-10.9-4.9-17.5,0.3c0-4.5,0-8.9,0-13.4c9.1-0.2,13.8-5.7,9.8-12
	c-2.1-3.2-6.4-5-9.8-7.4C1.1,265.2,1.1,261.9,1.1,258.7z"/>
<path d="M20.2,62.4c-0.7-1.3-1.5-2.6-2.2-3.9c0.4-0.3,0.9-0.6,1.3-0.9c-6-2.2-12.1-4.3-18.1-6.5c0-0.8,0-1.6,0-2.4
	c7.7,2.4,15.4,4.9,23.1,7.3c6.5-7.9,12.3-9.8,18.2-4.6c2.6,2.2,4.1,6.6,4.6,10.2c0.7,4.8,0.5,9.8,0,14.7c-1,10.3-0.9,21.1-4,30.8
	c-6.4,20.1-20,34.8-39.5,43.5c-0.7,0.3-1.6,0.2-2.4,0.3c0-1.2,0-2.4,0-3.6c10.8-2.9,19.6-9,26.4-17.6c9.6-12.2,15.8-26.3,17.3-42
	c0.4-4.5,0.4-9.1-0.2-13.5c-0.2-1.5-2.7-3.9-4.2-4c-3.5-0.2-7.3,0.1-10.6,1.4c-1.8,0.7-2.6,3.9-4.2,5.7c-0.6,0.7-2,0.8-4.4,1.6
	c3.1-5.6,10.1-7.2,6.5-14c-1.9-3.6-4.6-3-7.6-2.3L20.2,62.4z"/>
<path d="M140.8,430c-4.3-6.1-8.7-12.2-13.9-19.5c0.9-0.5,3-2.4,4.9-2.3c4.1,0.1,6-1.5,6.6-5.3c0.2-1.1,0.5-2.6,1.3-3
	c5.2-3.1,10.5-5.9,17-9.5c-0.4,2.8-1,4.6-0.9,6.4c0.2,5.4-2.8,10.7,0.5,16.2c1,1.6,1.1,5,0,6.4c-4.7,6.1-0.6,8.4,3.9,10.8
	C153.7,430,147.2,430,140.8,430z"/>
<path d="M524.6,430c0.9-1.3,1.8-2.6,2.8-3.8c1.8-2.2,2.5-4,0.3-6.7c-3.8-4.9-2.6-8.9,3.1-11c4.1-1.5,8.3-2.8,13.3-4.5
	c0.4,2.6,1.3,4.7,1,6.6c-1,6.9,0.7,10.9,6.6,14.1c7.6,4.1,15.5,2.7,24.6-5.2c1.9,3.6,3.6,7,5.4,10.4C562.6,430,543.6,430,524.6,430z
	"/>
<path d="M592.6,430c-1.6-7.3-4.4-13.9-10-19.2c-1.7-1.6-2.7-4-4-6.1c0.4-0.5,0.8-1.1,1.2-1.6c2.7,0.6,5.4,1.3,8.6,2
	c0.9-7.2,3.6-13.3,12.7-12.8c0,12.6,0,25.1,0,37.7C598.3,430,595.4,430,592.6,430z"/>
<path d="M1.1,247.8c3.4,0,6.7-0.3,10.1,0.1c2.3,0.3,4.5,1.6,6.7,2.3c1.2,0.4,2.5,0.9,3.7,0.7c12.7-2.6,25.4-5,37.9-8.2
	c5.5-1.4,10.3-5.3,15.7-7c5.9-1.8,12.1-2.3,19.2-3.6c4.4-6.2,5.6-6.7,12.2-3.7c1.1,0.5,2.2,1.7,2.5,2.7c0.9,3.6,1.5,7.3,2.2,11
	c-5.7-3.4-15.9,6.2-18.5-7.2c-26.3,10.5-54.4,12.6-82,19.6c0-2.2,0-3.7,0-5.1c-3.5,0.3-6.6,0.5-9.6,0.8
	C1.1,249.4,1.1,248.6,1.1,247.8z"/>
<path d="M233.1,430c7.3-7.5,14.3-15.2,22-22.2c1.9-1.7,6-1.1,10.5-1.8c-1.2,8.9-2.2,16.5-3.3,24C252.5,430,242.8,430,233.1,430z"/>
<path d="M75.2,430c1.2-4,1.8-7.6-2.3-10.6c-0.7-0.5-0.2-4.7,0.7-5.2c5.7-2.8,11.8-5,18.9-7.9c-1.1,10.3-1.1,18.4,6.9,23.7
	C91.4,430,83.3,430,75.2,430z"/>
<path d="M476.7,39.3c-7.1-13.5-14.3-27-21.4-40.5c1.2,0,2.4,0,3.6,0c6.8,12.7,13.7,25.5,20.5,38.2c0.6-0.3,1.2-0.5,1.8-0.8
	c1.7-13.3-5.6-24.8-7.7-37.4c1.6,0,3.2,0,4.9,0c0.8,12.6,4.7,24.3,8.1,36.3c5.3-12,3.9-24.2,4.1-36.3c0.4,0,0.8,0,1.2,0
	c-0.1,9.8-0.3,19.5-0.4,29.3c0,2.8,0.6,5.6,0.7,8.4c0,1.5-0.6,3.1-0.9,4.7c-1.3-0.9-2.5-1.8-4.1-2.9c-2.4,1.3-5.4,3-8.5,4.6
	C478,41.6,477.3,40.5,476.7,39.3z"/>
<path d="M5.9-1.2c6,11.9,12,23.7,17.9,35.6c1.5,3,2.7,6.2,5.3,9c-1.2-7.8-2.2-15.7-3.5-23.5C24.5,12.8,23,5.8,21.7-1.2
	c0.8,0,1.6,0,2.4,0c1.6,10.6,3.2,21.2,4.9,31.8c0.3,1.8,1.4,3.5,2.4,5.1c2.9,4.7,1,8.4-4.5,9.5c-1.8,0.4-3.2,2.4-3.7,2.8
	C15.9,40.9,8.5,33.8,1.1,26.7c0-1.2,0-2.4,0-3.6c1.8,1.4,3.7,2.8,5.3,4.4c5.6,5.4,11,11,16.5,16.5c0.5-0.4,0.9-0.8,1.4-1.2
	C19.4,33,14.4,23.4,9.6,13.7C7.1,8.7,4.7,3.7,2.3-1.2C3.5-1.2,4.7-1.2,5.9-1.2z"/>
<path d="M590.7,11.3c-6.8,6.5-13.3,5.4-18-2.9c-0.6-1.1-2.1-1.6-3.2-2.3c2-2.4,4-4.8,6-7.2c4,0,8.1,0,12.1,0c2.4,2.7,4.8,5.3,7.3,8
	C593.6,8.3,592.2,9.8,590.7,11.3z"/>
<path d="M601.1,42.5c-3-4.7-6-9.5-9.7-15.4c-1,2.5-2.4,4.2-2.3,5.8c0.5,8.5,1.6,16.9,2.2,25.3c0.7,11.6,1.1,23.2,1.6,34.8
	c-0.8,0.1-1.5,0.2-2.3,0.3c-0.4-3.6-1.1-7.3-1.3-10.9c-0.5-8.5-0.7-16.9-1-25.4c-0.2-4.8-0.1-9.7-0.6-14.5
	c-0.4-3.7,2.5-8.5-3.2-10.9c-0.7-0.3-0.3-3.4-0.4-5.2c2.3-1,4.5-2,7.9-3.5c1.6,3.1,3.1,6.6,5,9.8c1.1,1.8,2.7,3.3,4.1,4.9
	C601.1,39.3,601.1,40.9,601.1,42.5z"/>
<path d="M601.1,309.7c-3.9,1.6-7.6,3.5-11.6,4.7c-4.9,1.5-10.1,3.2-15.5-2.7c9.1-5.9,18.1-11.9,27.1-17.8c0,1.6,0,3.2,0,4.9
	c-6.7,3.2-14,5.3-18.9,11.2c0.2,0.6,0.5,1.2,0.7,1.7c6.1-2.3,12.1-4.6,18.2-6.9C601.1,306.5,601.1,308.1,601.1,309.7z"/>
<path d="M344.8-1.2c-1,8.6-3.3,11-10.8,11.1c-7.2,0-10.1-3.7-8.6-11.1C331.9-1.2,338.3-1.2,344.8-1.2z"/>
<path d="M316.9-1.2c0.3,1.9,0.7,3.8,1.1,6.6c-2.4,2.4-5.6,3.4-10.3,3.5c-7.4,0.2-14.8,2.5-22.2,4.2c-7.3,1.7-14.4,3.7-22,5.7
	c1.6-3.8,29.7-11.4,52.3-14.5c-2.8-2.4-4.5-3.9-6.3-5.5C312-1.2,314.4-1.2,316.9-1.2z"/>
<path d="M274.4,430c1.5-9,3-18,4.7-28.3c2.6,3.9,5.2,7.8,7.9,11.9c-5.8,4.6-7.1,10-4.1,16.4C280,430,277.2,430,274.4,430z"/>
<path d="M367.9-1.2c4.2,1.2,8.4,2.6,12.7,3.6c7,1.6,14,2.9,21,4.3c-0.1,0.9-0.2,1.7-0.4,2.6c-2.9-0.5-5.9-0.9-8.8-1.4
	c-6.6-1.3-13.2-3.4-19.9-3.8c-9.7-0.6-12.9-0.9-19.3-5.2C358.2-1.2,363-1.2,367.9-1.2z"/>
<path d="M488.1,430c0.6-4.9,3.2-9.1,2.9-14.8c-0.3-5.5,4.8-11.2,7.7-17.2c3.6,4.3,3.4,7.5,0.8,12c-3.7,6.3-6,13.3-8.9,20.1
	C489.8,430,488.9,430,488.1,430z"/>
<path d="M33.9,430c2.2-4.4,6.2-7.3,4.5-14.2c-1.1-4.5,4.8-10.7,7.6-16.1c0.5,0.2,1,0.5,1.6,0.7c-1.1,3.2-2.1,6.5-3.2,9.7
	c0.3,0.2,0.6,0.4,0.9,0.5c1.3-1.8,2.5-3.6,3.8-5.4c0.3,0.1,0.7,0.2,1,0.4c-0.9,2.3-1.7,4.6-2.8,6.8c-2.8,5.9-5.6,11.7-8.4,17.6
	C37.1,430,35.5,430,33.9,430z"/>
<path d="M503.9,430c-0.9-8.4,4.5-14.2,8.4-21c2.7,7.5,2.5,7.4-1.4,13.5c-1.5,2.3-2.3,5-3.4,7.5C506.4,430,505.1,430,503.9,430z"/>
<path d="M590.7,11.3c1.4-1.5,2.8-3,4.2-4.5c0.6-0.3,1.3-0.5,1.9-0.8c-3.8,9.5-3.8,9.5,4.2,11.1c0,2.8,0,5.7,0,8.5
	C595.2,26.2,589.2,17.9,590.7,11.3z"/>
<path d="M455.3,430c0-9.5,0-18.9,0-28.4c0.6-0.2,1.2-0.3,1.8-0.5c0.6,1.6,1.7,3.2,1.8,4.8c0.2,8,0.1,16.1,0.1,24.1
	C457.8,430,456.6,430,455.3,430z"/>
<path d="M601.1,177.3c-6.7-0.6-13.8,2.4-20.1-2.2c-0.6-0.4-1.2-1-1.6-1.6c-0.2-0.3,0-0.8,0-1.1c7.2,0,14.5,0,21.7,0
	C601.1,174.1,601.1,175.7,601.1,177.3z"/>
<path d="M1.1,228.3c3.7,0.7,8.1-1.4,10.7,4.2c0.7,1.6,7.1,0.3,10.9,0.8c2,0.2,3.8,1.4,5.7,2.2c0,0,0-0.1,0-0.1
	c-9.1-0.3-18.2-0.6-27.3-0.9C1.1,232.4,1.1,230.4,1.1,228.3z"/>
<path d="M440.8-1.2c6.1,7.9,12.2,15.7,18.2,23.6c1,1.3,1.7,3,2.5,4.5c-9.6-7.8-17.5-17-23.2-28.1C439.1-1.2,440-1.2,440.8-1.2z"/>
<path d="M601.1,354.7c-8.2-6.6-16.4-13.2-24.6-19.8c0.4-0.6,0.9-1.1,1.3-1.7c7.8,5.5,15.5,11.1,23.3,16.6
	C601.1,351.4,601.1,353,601.1,354.7z"/>
<path d="M217.4,412.9c-6,2.9-11.9,5.9-17.9,8.8c-5.8,2.8-11.6,5.5-17.4,8.3c-1.6,0-3.2,0-4.9,0c2.2-1.5,4.3-3.5,6.7-4.5
	c10.1-4.3,20.3-8.3,30.5-12.3C215.3,412.8,216.4,413,217.4,412.9z"/>
<path d="M312,430c-2.2-1.5-4.6-2.9-6.7-4.6c-1.8-1.4-3.3-3.1-5-4.7c0.6-0.8,1.3-1.6,1.9-2.4c6.1,3.9,12.2,7.8,18.2,11.7
	C317.7,430,314.9,430,312,430z"/>
<path d="M601.1,321.9c-3.1,0.9-6.2,2.3-9.4,2.5c-4.3,0.3-8.8,0.4-12.8-1.2c0.1-0.5,0.2-1.1,0.3-1.6c7.3-1.1,14.6-2.2,21.9-3.3
	C601.1,319.4,601.1,320.6,601.1,321.9z"/>
<path d="M601.1,335.2c-7.1-1.6-14.3-3.2-21.4-4.9c-0.6-0.1-1.1-0.4-1.6-0.7c-0.3-0.2-0.4-0.7-0.8-1.6c8.2,1.2,16,2.4,23.9,3.5
	C601.1,332.8,601.1,334,601.1,335.2z"/>
<path d="M52.1,430c-0.1-8.2,4.4-14.4,10.5-19.8c-2.5,4.3-4.9,8.6-7.4,12.9c0.6,0.3,1.2,0.7,1.7,1c1.6-2.5,3.3-5,4.9-7.5
	c0.4,0.3,0.7,0.5,1.1,0.8c-2.8,4.3-5.6,8.5-8.4,12.8C53.7,430,52.9,430,52.1,430z"/>
<path d="M3.5,430c0-9.3,0-18.6,0-27.9c0.8,0,1.6,0,2.4,0c0,9.3,0,18.6,0,27.9C5.1,430,4.3,430,3.5,430z"/>
<path d="M354.5,430c0.1-4.4,0.2-8.9,0.4-13.3c0.1-1.9,0.3-3.7,1.6-6.5c0.8,1.5,2.2,3,2.1,4.5c-0.3,5.1-1.1,10.2-1.7,15.3
	C356.1,430,355.3,430,354.5,430z"/>
<path d="M601.1,196.8c-4.2,1.2-8.3,2.5-12.5,3.4c-1.5,0.3-3.2-0.6-4.8-0.9c0-0.8,0.1-1.7,0.1-2.5c5.7-1.2,11.4-2.4,17.1-3.6
	C601.1,194.3,601.1,195.5,601.1,196.8z"/>
<path d="M601.1,168.8c-6.6-0.6-13.2-1.1-19.8-1.7c1.6-4,6.8-4.2,19.8-0.7C601.1,167.2,601.1,168,601.1,168.8z"/>
<path d="M434.7,430c-1.2-6.6-2.4-13.2-3.9-21.4c6.6,7,4.5,14.8,6.4,21.4C436.3,430,435.5,430,434.7,430z"/>
<path d="M418.9,430c-2-5.4-4.1-10.9-6.1-16.3c0.5-0.2,0.9-0.5,1.4-0.7c4.7,4.5,6.2,10.6,7.1,17C420.5,430,419.7,430,418.9,430z"/>
<path d="M414-1.2c2.3,1.5,4.6,2.9,6.9,4.4c2.2,1.5,4.4,3.1,6.6,4.7c-0.4,0.6-0.8,1.2-1.2,1.8c-5.7-3.7-11.5-7.3-17.2-11
	C410.8-1.2,412.4-1.2,414-1.2z"/>
<path d="M586.5,430c-4.5-10.4-5.2-11.3-12.6-16.7c4.5-2,9.7,3.8,15.1,16.7C588.1,430,587.3,430,586.5,430z"/>
<path d="M601.1,189.5c-4.7,1.4-9.5,2.8-14.2,4.2c-0.2-0.8-0.5-1.5-0.7-2.3c4-4.1,10.2-2.4,15-4.4
	C601.1,187.9,601.1,188.7,601.1,189.5z"/>
<path d="M111.6,430c2.9-1.6,5.6-3.5,8.6-4.6c3.8-1.4,5.2,1.4,5.9,4.6C121.3,430,116.5,430,111.6,430z"/>
<path d="M58.2,430c3.3-5.1,6.6-10.2,9.9-15.4c0.4,0.2,0.8,0.4,1.3,0.5c-2.1,4.9-4.2,9.9-6.3,14.8C61.4,430,59.8,430,58.2,430z"/>
<path d="M131,430c-2.7-4.2-5.4-8.4-8.1-12.5c0.3-0.4,0.7-0.7,1-1.1c3.9,4.2,9.2,7.1,10.7,13.6C133.5,430,132.3,430,131,430z"/>
<path d="M163.8,430c5.3-3,10.6-6,15.8-9.1c0.4,0.6,0.7,1.3,1.1,1.9c-3.6,2.4-7.2,4.8-10.8,7.2C167.9,430,165.9,430,163.8,430z"/>
<path d="M412.8,430c-1.9-4.7-3.7-9.4-5.6-14.1c0.5-0.3,1-0.6,1.4-0.9c4.1,3.9,5.1,9.6,6.6,14.9C414.4,430,413.6,430,412.8,430z"/>
<path d="M601.1,204c-4.7,1.6-9.4,3.2-14.1,4.9c-0.2-0.5-0.4-1-0.6-1.5c4-3.9,9.3-4.9,14.6-5.8C601.1,202.4,601.1,203.2,601.1,204z"
	/>
<path d="M1.1,92.3c5.3-3.7,10.6-7.3,15.9-11c0.3,0.4,0.6,0.9,0.9,1.3c-5.6,4.1-11.2,8.1-16.8,12.2C1.1,93.9,1.1,93.1,1.1,92.3z"/>
<path d="M38.7-1.2c-0.6,9.7-1.1,19.4-1.7,29.1c-0.2,0-0.5,0-0.7,0c0-9.7,0-19.4,0-29.1C37.1-1.2,37.9-1.2,38.7-1.2z"/>
<path d="M406.8,430c-1.9-4.2-3.8-8.5-5.8-12.7c5.7,2.3,6.9,7.6,8.2,12.7C408.4,430,407.6,430,406.8,430z"/>
<path d="M601.1,93.5c-2-4.2-3.9-8.3-5.9-12.5c0.9-0.4,1.7-0.7,2.6-1.1c1.1,3.3,2.2,6.6,3.3,9.9C601.1,91.1,601.1,92.3,601.1,93.5z"
	/>
<path d="M601.1,378.9c-2.3-3.2-4.5-6.4-6.8-9.7c0.4-0.4,0.8-0.8,1.2-1.2c1.9,0.8,3.7,1.6,5.6,2.3
	C601.1,373.3,601.1,376.1,601.1,378.9z"/>
<path d="M510,430c2.2-3.5,4.4-7,6.7-10.7c0.7,1.4,1.5,2.8,2.1,3.9c-1.7,2.3-3.4,4.5-5.1,6.8C512.4,430,511.2,430,510,430z"/>
<path d="M396.2,252.6c0-3.4,0-6.2,0-8.9c7.4-1.7,11.4-7.2,11.5-16.9c0.1-5.3-3.8-8.4-8.2-10.3c-4.5-2-14.9,2.2-17.2,7.3
	c-3.7,8.2,0.5,14.9,5.5,20.8c-1.9,1.4-3.9,2.7-5.7,4.2c-3.4,2.8-6.5,3.7-9.6-0.4c-1.7-2.3-3.5-2.7-6.7-1.6c-6.3,2.2-13,3.2-19.5,4.7
	c-0.3-0.7-0.6-1.4-0.8-2.1c6-5.3,12-10.7,18-15.9c6.8-6,13.7-11.9,20.5-17.8c3.6-3.1,7.6-5.9,10.9-9.3c1.1-1.2,0.8-3.8,1.9-3.6
	c-5.1,4.6-10.2,9.2-15.3,13.8c-1.1-0.9-2.1-1.7-3.2-2.6c0.8-1.7,1.4-3.8,2.6-5.2c2.7-3.2,5.8-6.1,8.8-9.1c3.9-4,2.4-7.2-1.2-10.4
	c-2-1.8-3.5-4.2-5.2-6.4c-0.5-0.6-0.9-1.4-1.5-1.9c-3.8-2.7-7.3-5.8-11.4-7.9c-7.1-3.7-14.5-6.7-20.7-9.5
	c7.1-4.7,14.8-9.9,22.6-14.8c1.4-0.9,3.6-0.8,5.4-0.5c5.2,1,10.4,2,15.5,3.6c1.9,0.6,4,2.2,4.8,3.9c2.2,4.5,3.6,9.7,9.2,10.9
	c2.6,0.5,6,0.3,8.2-1c2.8-1.6,4.5-1.5,5.9,1c5.9,10.7,11.8,21.5,10.9,34.3c-0.7,9.5-1.3,19-2.3,28.4c-0.9,8.8-6.3,15.6-10.4,23.1
	c-4.3,8-7.3,16.7-10.8,25c-3.9-2.8-3.9-2.8-0.4-7.4c1.9-2.6,3.9-5.1,5.7-7.5C410.4,254.8,405.4,250.2,396.2,252.6z"/>
<path d="M500.2,391.4c-4.3-0.3-7.8-0.6-11.4-0.9c-0.4,0-0.9,0.5-1.1,0.4c-9.1-4.7-18.5,2.4-27.8-0.6c-1.4-0.4-3.3,0.7-4.9,1.2
	c-2.3,0.6-4.5,1.4-6.8,1.9c-1.1,0.3-3.1,0-3.4,0.5c-3.4,7.5-12.8,4.6-17.5,10c-0.7,0.8-2.9,0.1-5.2,0.1c0.8-1.5,1.2-2.6,1.9-3.3
	c3.7-3.6,7.6-7,11.4-10.6c10.5-10,11-23.6,12.6-36.5c1.7-13.7,2.4-27.6-1.3-41.2c-1.7-6.3-4.8-12.2-7.6-18.1c-1.4-2.9-3.3-4.9,0.7-8
	c1.8-1.4,2.7-7.1,1.4-9c-2.8-4-7.5-3.9-11.7-1.1c-4.6-4.7-4.9-8.6-0.4-14.6c8.8-11.5,13.7-25.2,15.5-39.8c0.3-2.4,1.5-4.6,2.9-8.5
	c1.5,2.7,2.8,4,2.5,4.8c-2.8,10.1,3.4,19,3.7,28.5c0.1,2.7-2.2,5.5-3.5,8.5c-3.1-1.8-5.5-3.1-9.4-5.3c-1.7,4.8-3.9,8.9-4.7,13.3
	c-0.8,4.6,3.3,5.7,6.8,6.9c2.4,0.8,4.8,1.8,5.9,2.3c-1.2,4.7-2,8.2-3.2,12.7c-2.2,0.5-5.4,2.8-3.4,7.1c1,2.2,4.9,5.1,6.4,4.6
	c3.2-1.2,5.6-4.4,7.8-7.3c5.8-1.5,9.2-4.8,9.7-10.4c0.6-7.3-1.2-9.3-13-13.1c1.8-2.7,3.5-5.2,5-7.4c3.9,2.1,7.2,3.9,11.3,6.1
	c1.2,7.4,8,13.5,14.3,11.8c7.8-2.1,9.6-8,5.7-20.4c3.9-1.5,7.8-2.9,12.5-4.7c-1.8,12.9-1.7,13,10.3,16.6c-2.4,2.4-4.3,4.3-6.2,6.2
	c-2,2.1-4.2,4-5.9,6.3c-2,2.6-3.5,5.6-5.6,8c-3.2,3.5-6.3,6.5-12.3,4.5c-2.2-0.7-6.1,3.5-9.9,6c-6.7-3.5-16.2-1.9-21,4.5
	c-3.9,5.2-3.1,12.9,1.7,17.5c6.3,5.9,13.5,5.9,22.4-1.1c0.4,5.1,1.3,9.3,0.8,13.3c-0.7,5.7,0,10.5,3.5,15.3c1.3,1.7,1.5,5.4,0.5,7.4
	c-1.5,3.3-0.9,5.1,2,6.2c4,1.5,4.7,4.4,4.3,8.1c-0.4,3.8,0.6,6.2,4.9,7.6C496.7,379.5,501.1,388.6,500.2,391.4z M473.6,342.5
	c-0.1-3.9-5.1-9.7-8.4-9.7c-4.7,0.1-9,4.9-8.5,9.8c0.4,5.2,4.3,7,8.7,7.4C469.9,350.5,473.6,346.7,473.6,342.5z"/>
<path d="M430.4,147.1c-2.8-6-5-11.4-12.2-12.8c-5.3-1-9.3-0.1-13.3,3.1c-1.4,1.2-3.7,2.4-5.2,2.1c-6.4-1.3-12.8-3-19-5
	c-1-0.3-1.6-3-1.7-4.6c-0.6-6-0.5-12-1.3-17.9c-1.7-11.7-8.6-20.7-16.4-29.1c-1.4-1.5-2.4-3.2-4.3-5.9c3.2-0.2,4.7-0.6,6-0.3
	c5.2,1.4,7.5-0.2,7.7-5.8c0-1.5,1.8-3.3,3.2-4.5c4.4-3.6,9-7,14.1-10.9c0,3.1,0,6.7,0,10.3c0,4.7,0.1,9.5,0.2,14.2
	c0,2.8-0.2,5.6,0.2,8.3c0.4,2.5,0.8,5.7,2.5,7.2c1.2,1.1,4.6,0.4,6.7-0.3c4.5-1.7,8.7-4,13.1-5.9c0.9-0.4,2-0.1,3.3,1
	c-3.7,1.8-7.8,3.2-11.1,5.6c-2.8,2.1-5.9,5.2-6.6,8.4c-1.6,6.6,0.4,8.5,7.5,9.2c0.2,1.9-0.1,4.2,0.9,5.7c1.6,2.6,3.8,5.1,6.2,6.9
	c2.1,1.6,5.4,1.6,7.4,3.2c5.5,4.7,13.8,4.8,18.5-0.7c6.3-7.5,12.2-15.4,18.4-22.9c2-2.4,5.1-3.9,7.2-6.3
	c7.5-8.1,14.6-16.5,22.2-24.5c1.9-2,5.3-3.9,7.8-3.7c4.5,0.4,3.3,4.9,3.1,7.9c-0.7,12-1.7,23.8-9.3,34.2c-12.5,17.1-28.2,29-49.3,33
	C434.8,146.8,432.8,146.9,430.4,147.1z"/>
<path d="M352.4,92.9c10.9,8.2,14.6,17.9,10.7,31.4c-1.5-2.1-3.1-3.5-3.7-5.3c-2.6-7.3-8.5-12.4-14.2-11.9
	c-9.1,0.7-15.4,6.1-16.9,14.4c-0.2,1.1,0.3,2.3,0.5,3.4c0.7,4.6,0.1,7.2-5.8,6.5c-8.2-1-16.2,6.5-18.2,15.9c-0.5,2.5-1.1,5-1.9,8.1
	c-2.8-0.8-5.3-2.5-7.5-2.1c-6.9,1.3-13.6,3.5-20.5,5.2c-1.4,0.4-2.9,0.2-4.1,0.8c-3,1.4-6.5,2.4-8.4,4.8c-1.1,1.4,0.2,5,0.9,7.5
	c1.1,3.4,2.8,6.6,2.9,10.3c-2.6-4.4-5.1-8.8-7.4-12.7c-3.4,0.5-5.9,0.5-8.3,1.1c-4.6,1.3-4.9,5.3-4,8.8c3.8,14-3.3,25.5-8.2,37.6
	c-1.2-9.1-4.5-18.1,1.8-26.9c3.4-4.8,2.8-10.6,1.4-16.2c-0.4-1.6,0.3-4.4,1.5-5.3c14-10.6,24-24.6,34.5-38.3
	c7.6-9.9,16.2-19.1,24.7-28.4c3.5-3.8,4.7-7.1,0.9-11.4c-3.2-3.6-1.9-7.5,1.5-9.7c3-2,6.9-3.3,10.5-3.8c7-0.9,8,0.5,6.6,7.5
	c-1.5,7.5,5.4,16,13.6,16.7C342.5,101.4,348.9,100.8,352.4,92.9z"/>
<path d="M146.9,267.2c0.2-1.5,0.4-3.1,0.7-5.1c-3.8-3-6.1-8.7-13.9-6.6c-2.5,0.7-9.4-1.4-11.5-7.1c-1.1-3-4-5.4-5.8-8.2
	c-1.4-2.1-2.5-4.4-3.5-6.8c-1.7-4-3.1-8.2-5.2-14c2.9-6.9,6.7-15.7,10.5-24.8c3.5,3,5.4,5.7,2.5,9.9c-1.9,2.8-1.5,5.5,1.2,8
	c3.4,3.2,7.5,5.9,8.2,11.3c0.2,1.2,2.6,3,3.9,3.1c6.3,0.1,12.2,0.4,18.5-3.3c13.8-8.1,28.4-14.6,42.8-21.7c1.8-0.9,3.5-1.8,5.8-2.9
	c-0.7,5.6,0.6,10.4,6,11.9c1.8,0.5,5.3-1.3,6.4-3.1c3-4.9,1.4-9.5-3.2-13.6c4.3-1.7,7.7-6.2,12-1.4c1.3,1.4,2.4,3.8,2.1,5.5
	c-1.7,12.3,0.4,23.8,6.7,34.6c2.5,4.4-0.1,16.6-4,19.1c-0.7,0.5-1.9,0.4-2.9,0.4c-7,0-14,0-20,0c2.2-4.7,5.3-10,7.4-15.6
	c1.5-4.1-2.9-14.1-6.6-16.5c-12-7.4-22.2-6.5-28.4,0.1c-5.2,5.5-8.2,11.9-7.4,19.7c0.6,5.3,1.6,6.6,13.6,17.6
	c-3.2,1.8-6.1,3.5-9.3,5.4c-0.8-4.6-0.9-8.5-2.3-11.8c-2.5-6.1-6.7-7.1-13-3.5c-5.2,2.9-6.8,8.5-3.5,13.2c1.2,1.8,3.2,3.1,4.5,4.8
	c0.8,1.2,1,2.9,1.7,5.1C154.7,270.2,152.5,262.5,146.9,267.2L146.9,267.2z"/>
<path d="M229.7,293c8.6-29.4,17.2-58.7,25.8-88.1c0.6,0,1.3,0,1.9,0c3.7,8,7.6,16,11.1,24.1c4.4,10,8.4,20.2,12.8,30.3
	c1.8,4.1,1.7,6.4-3,8.8c-14.4,7.5-28.5,15.7-42.6,23.7c-1.4,0.8-2.8,1.4-4.2,2.1C230.9,293.6,230.3,293.3,229.7,293z"/>
<path d="M226.3,265.6c-3.6,11.1-6.8,21.3-10.3,31.5c-0.8,2.4-1.7,4.3-5.6,3.4c-6.9-1.7-8.8,0.4-9.5,7.6c-0.2,1.7-1.7,4.7-2.2,4.6
	c-7.3-1-8.4,7.5-14.1,9c-2.6,0.7-4.5,3.5-7.5,5.9c-0.3-9.7-3.3-19.2,0.2-28.5c1.2-3.1,5-5.2,7.7-7.7c3.5-3.1,4.1-6.5,1.9-10.6
	c-2.7-5.1-2.1-9.1,4-10.9C202.3,266.7,213.5,264.1,226.3,265.6z"/>
<path d="M476.7,39.3c0.6,1.2,1.2,2.3,1.8,3.5c-1,5.1-1.9,10.1-2.9,15.2c-2.5,0.3-5.1,0.7-7.8,1c0.1,0.4,0.1,0.8,0.2,1.1
	c4.2-0.4,8.3-0.8,12.8-1.2c0-1.7-0.6-3.6,0.1-4.8c1.7-2.9,3.6-7,6.2-7.6c3.9-0.9,10-3.1,11.8,3.8c1.6,6.1,2.7,12.4,3.7,18.6
	c2.3,14.1,0.7,28-6.2,40.4c-9.4,16.9-20.4,33-40.4,39.1c-7.4,2.3-14.9,4.2-22.5,5.9c-2.2,0.5-4.7-0.6-7.3-2.1
	c22.9-0.5,40.4-9.7,55.5-26.9c15.5-17.6,20.8-36.6,17.6-58c-6.2-2-11.3-4.8-16.5-5.1c-4.9-0.3-10,2-15,3.1c-1,0.5-2,1-3,1.5
	c-4.5,1.9-8.5,0-12.4-1.9l0.1,0.2c3.1-0.6,6.4-0.8,9.4-1.9c2-0.7,3.5-2.8,6.1-4.9c-20.9-2.6-39.7-4.9-58.6-7.2
	c0-0.4-0.1-0.8-0.1-1.3c5.9,0,11.9-0.4,17.7,0.1c8.4,0.8,16.8,2.2,25.1,3.5c1.9,0.3,3.8,1.6,5.7,1.8c3.1,0.2,6.1-0.2,9.2-0.3
	c0-0.6-0.1-1.2-0.1-1.8c-10.5-4.7-20.8-10.1-31.6-14c-10.7-3.8-21.8-6.2-33.2-9.3c1.5-0.3,3-1,4.3-0.7c9.1,2.2,18.4,4,27.3,7
	c9.7,3.2,18.9,7.5,28.5,11.1c2.6,1,5.6,1,9.7,1.8c-12.1-9.3-22.9-17.5-33.7-25.7c0.1-0.2,0.3-0.3,0.4-0.5
	c8.4,5.6,16.8,11.1,25.3,16.6c1.2,0.8,2.6,1.5,3.9,2.2c0.6-0.5,1.2-0.9,1.8-1.4c-1.6-2.8-3.3-5.6-4.9-8.4c-1.1-1.8-2.2-3.6-3.3-5.4
	c2.5,2.4,4.8,5,7.4,7.1C471.2,35.8,474,37.5,476.7,39.3z"/>
<path d="M204.2,165.3c-20-15.9-39.9-31.8-59.9-47.6c0.3-0.4,0.6-0.8,0.9-1.1c21.5,16,43,32,64.4,48.1c0.1-0.2,0.2-0.4,0.3-0.6
	c-16.9-21.6-33.9-43.1-50.8-64.7c0.4-0.4,0.8-0.7,1.2-1.1c2.6,3,5.4,5.8,7.9,8.9c10.2,12.4,20.1,25,30.4,37.2
	c4.8,5.8,9.8,11.5,15.5,16.4c5.2,4.5,4,8.2,1,13c-1,1.5-5.1,2.9-1.6,5.9c-2.2,1.2-4.3,2.4-6.5,3.7c2,0,4.3,0,6.6,0
	c0.3,0.6,0.5,1.2,0.8,1.7c-5.1,2.7-9.9,6.2-15.3,8c-8.6,3-17.6,4.7-26.2,7.4c-5.1,1.6-9.8,4.3-14.8,6.2c-3.3,1.2-6.8,1.9-10.6,1.5
	c5.3-2.2,10.5-4.5,15.8-6.5c12.5-4.6,25-9.1,37.4-13.7c1.6-0.6,2.9-2,4.3-3.1c-1.7-0.3-3.5-1-5.1-0.8c-11.5,1.3-23,2.3-34.3,4.2
	c-11.2,1.9-22.2,4.8-33.3,7.1c-1.9,0.4-4,0.1-6.1-0.8c12.6-3.6,25.6-5.1,38.3-8c12.6-2.9,26.3-1.2,39.3-7.7
	c-9.1-5.1-17.5-5.5-26.3-5.3c-18.1,0.4-36.3,0.1-54.5-1.3c8.8-3,17.8-2.1,26.8-2.1c9.4,0,18.9,0.6,28.3,1.2c9,0.5,18,1.4,27.6,2.1
	c-1.3-4.3-3.1-5.4-7-5.2c-3.5,0.1-7.1-1.3-10.4-2.8c-2.4-1.1-4-4.2-6.4-5c-14.9-4.8-30-9.2-45-13.9c-1.7-0.5-3.1-2.2-4.6-3.4
	c0.3-0.6,0.6-1.1,0.9-1.7c23.5,8.5,47,16.9,70.6,25.4C204,166.4,204.1,165.9,204.2,165.3z"/>
<path d="M221.8,297.1c3-11.9,5.9-23.8,8.9-35.9c-10.4,0-19.5,0.1-28.7,0c-13.4-0.2-21.8,9.2-31.6,15.9c-3.8,2.6-8.2,4.3-12,7
	c-1.3,0.9-1.5,3.5-2.1,5.3c0.5,0.3,0.9,0.6,1.4,0.9c-10.9,8.9-21.9,17.7-32.4,26.2c4.5-1.3,9.6-2.7,14.6-4.1
	c0.3,0.5,0.5,1.1,0.8,1.6c-2.5,1.2-4.9,2.4-7.4,3.5c-3.1,1.4-6.2,2.6-9.7,4.1c-1.1-1.5-2.3-3.1-3.4-4.6c9.3-7.4,18.6-14.5,27.4-22
	c2.6-2.3,3.6-6.4,6.2-8.7c6.9-6.1,14.2-11.7,21.5-17.4c11.4-9,24.6-10.6,38.6-10.3c4.9,0.1,9.9-0.7,14.9-1.2c0.9-0.1,2.4-0.5,2.6-1
	c1.9-6.3,5.4-12.8,4.9-19c-0.9-9.9-4.8-19.6-6.7-29.5c-0.8-4.1-0.3-8.7,0.5-12.9c0.7-3.7,1-6-3.6-7c-3.5-0.7-6.6-2.6-6.7-7.3
	c-0.1-5.2,1.9-9,6.3-11.4c3.7-2,10.8,2.2,10.6,6.6c-0.2,4.3-1.9,8.6-2.8,12.9c-1.1,5.7-3.4,11.5-2.8,17c1,9.2,4,18.3,6.1,27.4
	c0.9-0.1,1.7-0.1,2.6-0.2c4.3-13.9,8.5-27.9,12.8-41.8c0.4-0.1,0.8-0.1,1.2-0.2c0.2,1.6,0.9,3.4,0.4,4.9
	c-6.2,19.6-12.7,39.1-18.7,58.7c-2.6,8.4-3.8,17.2-6,25.7c-1.5,5.8-3.6,11.5-5.4,17.2C223.3,297.4,222.5,297.3,221.8,297.1z"/>
<path d="M303.4,235.1c7.8-23.4,15.7-46.8,23.5-70.2c0.6,0.2,1.1,0.4,1.7,0.6c-8.6,27.5-17.1,55-25.7,82.5c0.9,0.4,1.8,0.8,2.7,1.2
	c14.1-25.9,28.2-51.9,42.3-77.8c0.6,0.3,1.2,0.7,1.9,1c-5,9.3-10.1,18.4-14.8,27.8c-5.8,11.6-10.9,23.6-17.1,35
	c-3.6,6.6-8.9,12.3-13.3,18.4c-1.6-1.2-3.2-2.3-4.8-3.4c-1.9-2.1,1.7-8.1-6.6-6.2c8.4-26.2,6.9-52.8,7.6-80.8c1.3,1.5,3,2.6,2.9,3.6
	c-0.6,15.3-1.5,30.5-2.1,45.8c-0.2,4.6,0.5,9.3,0.6,13.9c0,2.5-0.5,5.1-0.7,7.6C302,234.4,302.7,234.8,303.4,235.1z"/>
<path d="M235.4,153.1c-2.3,3.2-4.5,6.4-7,9.8c-1.3-2-3.3-4.8-7.2-0.4c-5.6-29.3-11-57.2-16.3-85.1c0.5-0.1,1-0.2,1.4-0.3
	c8.3,26.6,8.5,55.4,19.6,81.6c4.2-9.7,3.2-19.2,2.5-28.9c-0.9-12.2-0.3-24.5-0.2-36.7c0-1.1,1-2.2,1.5-3.3c0.7,0.1,1.3,0.2,2,0.2
	c0,19,0,38,0,57c0.6,0.1,1.3,0.1,1.9,0.2c4.4-14.4,8.8-28.9,13.6-44.8c0.3,12.7-0.8,23.5-5.4,33.8c-1.5,3.2-2,6.9-3,10.3
	C237.7,148.6,236.6,150.8,235.4,153.1z"/>
<path d="M109.6,248.1c-5.7,2-9.2,6.1-15.2,4.7c-4.5-1.1-5.2,2.7-4.6,6.3c1.3,7.9,2.5,15.7,4.1,23.5c1.5,7.4,3.8,14.6,5.3,22
	c0.5,2.4-0.7,5-1.8,7.2c-3.7-20.6-7.3-41.2-11.1-62.1c-10.4,5.9-19.1,11.7-27.3,19.6c1.4-8.5-3-11.9-9.9-13.7
	c0.3-0.5,0.6-0.9,0.8-1.4c13.7-4.5,27.3-9.1,39-12.9C96.4,243.8,102.3,245.7,109.6,248.1z"/>
<path d="M522.8,232.5c5-0.9,10.1-1.6,15-2.8c1.9-0.5,3.6-1.9,5.3-3c0,0-0.2,0.2-0.1,0.2c2.9,0.6,5.8,1.2,8.6,1.8
	c1.4-2.1,2.6-5.4,4.9-7.1c3.8-2.8,11.4,0.9,11.1,6c-0.3,6.3,4.3,8.8,6.8,12.9c1.5,2.4,2.8,4.9,4.2,7.3c-0.5,0.3-1,0.7-1.5,1
	c-2-2.9-4-5.8-6.1-8.6c-1.9-2.6-3.8-3.6-7.6-2.7c-5.3,1.2-10.3-0.5-11.8-7.3c-8.2,2.8-15.1,10-24.4,6.4c-20.4,5.5-41,11.1-62.7,16.9
	c0.9-2.2,1.3-3.1,2-5c-3.1,0.6-5.7,1.1-8.3,1.6c-0.3-0.3-0.5-0.6-0.8-0.9c0.9-0.9,1.8-2.4,2.8-2.5c4.7-0.3,9.3-0.1,14-0.3
	c2,0,4-0.1,5.9-0.6c12.3-2.9,24.7-5.7,36.9-8.9c2.1-0.6,3.8-3,5.6-4.6C522.9,232.4,522.8,232.5,522.8,232.5z"/>
<path d="M260.1,350.1c0.3,1.9,0.6,3.9,0.8,5.8c0.3,3.4,0.4,6.7,0.6,10.1c0.1,2.6,0.2,5.1,0.2,7.7c-1.8-0.2-3.6-0.5-5.5-0.6
	c-0.5,0-1.5,0.4-1.6,0.8c-1.5,4.6-5.9,4.8-9.5,6.2c-0.4-0.4-0.8-0.7-1.2-1.1c-2.4-3.1-4.8-6.3-6.9-9c0.7,0.1,3.1,0.3,6.6,0.7
	c-8-15.9-15.5-30.9-23.4-46.7c1.3,0.9,2.8,1.5,3.4,2.5c5.3,10.2,10.3,20.7,15.9,30.8c2.4,4.3,6.3,7.9,10.5,11.2
	c-3.8-21.8-7.5-43.6-11.3-65.4c0.7-0.1,1.4-0.3,2.1-0.4c3.7,21,7.5,42,11.2,63c1.1,0.1,2.1,0.2,3.2,0.2c1.1-3.6,2.3-7.1,3.3-10.7
	c0.5-1.9,0.7-3.8,1-5.7C259.8,349.8,259.9,349.9,260.1,350.1z"/>
<path d="M545.7,337.3c-0.9-0.7-2-2.2-2.7-2c-6.3,1.3-12.6,3-18.9,4.5c-11.7,2.9-23.4,5.7-35.1,8.6c-0.2-0.9-0.5-1.7-0.7-2.6
	c5.1-1.5,10.2-3.2,15.4-4.5c11.8-2.7,23.7-5.2,35.6-7.9c1.1-0.2,1.9-1.6,2.8-2.4c-0.8-0.6-1.8-1.8-2.5-1.7
	c-7.1,0.7-13.5-1.5-20.2-3.5c-8.3-2.5-17.2-2.7-25.9-4c-1.9-0.3-3.8-0.9-5.5-2.2c18-0.8,35.3,4.2,52.9,7
	c-15.8-8.6-31.6-17.2-47.3-25.8c0.1-0.4,0.2-0.7,0.2-1.1c1.4,0.4,3,0.5,4.2,1.1c13.5,6.8,27,13.8,40.5,20.6c1.7,0.8,3.7,1,5.5,1.5
	c0.5,0.7,1.3,1.3,1.4,2C545.6,329,545.6,333.1,545.7,337.3z"/>
<path d="M85.8,223.3c1,1.3,2.2,2.4,2.8,3.8c0.4,1.1,0.4,2.7-0.1,3.7c-0.4,0.7-2.2,1.4-3,1.1c-8.7-2.8-18.2-1.6-26.5-7.4
	c-4.6-3.2-12-2-17.9-3.6c-11.1-3-22-6.6-32.9-10.1c-1.3-0.4-2.3-1.8-3.2-3c25.9,11.1,53.8,13.9,81.2,20.5
	c-26.6-14.9-52.7-29.9-78.3-45.5c0.4-0.6,0.7-1.2,1.1-1.9c8.8,4.7,17.8,9.1,26.4,14.2c11.5,6.7,22.7,14.1,34.2,20.8
	c5.2,3,11,5.1,16.5,7.6C86.1,223.5,85.8,223.3,85.8,223.3z"/>
<path d="M234.4,314.5c-4.6-3.2-2.7-9-5.7-13.9c13.4-7,26.4-13.9,39.3-20.7c6-3.2,12.1-6.3,17.9-9.7c1.4-0.8,3-3.1,2.8-4.6
	c-0.7-6.4,3.9-6,7.8-6.3c3.9-0.3,9.5,4.7,9.3,8.4c-0.2,4.1-2.3,7.1-6.7,7.9c-1.2,0.2-2.7,0.5-3.6,0c-7.8-5.2-14.1-0.4-20.5,3
	c-11.8,6.2-23.5,12.6-35.3,19C232.9,301.2,232.4,303,234.4,314.5z"/>
<path d="M568.6,19.5c-8.3,8-16.7,15.9-25,24c-5.7,5.5-11.2,11.3-16.9,16.8c-2.4,2.3-5.4,4.1-8.1,6.1c-0.5-0.6-1-1.2-1.4-1.8
	c15.5-14.7,30.9-29.5,46.4-44.2c0-0.6,0-1.2,0-1.8c-2.5-0.2-5.3-1.2-7.5-0.4c-14.1,4.8-28.1,10-42.2,15c-2,0.7-4,1.1-6.6,0.4
	c2.9-1.6,5.8-3.1,8.7-4.7c-0.2-0.6-0.3-1.2-0.5-1.8c-3.9,1-7.8,2.1-11.6,3.1c5.2-5.3,8.1-5.6,14.7-2.7c0.9,0.4,2.3,0,3.4-0.3
	c13.1-4.6,26.1-9.3,39.2-13.8c2.3-0.8,5-0.5,8.2-0.8c-0.3,2.6-0.6,4.8-0.8,7.1C568.4,19.7,568.6,19.5,568.6,19.5z"/>
<path d="M554.8,340c-0.5,0.1-0.9,0.1-1.4,0.2c-0.1-1,0.1-2.5-0.4-2.8c-6.8-4.8-5.9-11.4-4.5-18.1c5.6-3.3,11.1-3.5,16.7,0.1
	c1.9,1.2,7.3,10.4,6.4,12.2c-0.5,1.1-2,1.7-3,2.4c-2.3,1.6-4.7,3.2-7,4.8c-0.5,0.5-0.9,0.9-1.4,1.4c-1.1-0.5-2.3-0.9-3.4-1.4
	C556.2,339.2,555.5,339.6,554.8,340z"/>
<path d="M254.4,295.8c7.4-4.1,13.9-7.8,20.4-11.4c3.2-1.7,6.5-3.2,9.6-4.9c4.1-2.2,7.9-2.4,12,2.7c-3.8,2.7-8,5.3-11.6,8.4
	c-2.3,2-3.9,4.9-6.2,7.9c-4.8-3-10.3-5-16.6-1.4C260.6,298.1,257.7,296.5,254.4,295.8z"/>
<path d="M352.3,84.6c12.5,5.8,19,16.1,20.4,29.3c0.7,6.1,0.4,12.3,0,18.5c-0.3,4.4,1.6,6.9,5.4,8.1c5.1,1.6,10.2,2.9,15.4,4.3
	c-0.1,0.6-0.3,1.1-0.4,1.7c-5-1.4-10.2-2.4-15-4.4c-4.2-1.8-6.7-1.4-9.7,2.3c-7.9,9.9-18.8,12.7-30.9,12.2c-0.7,0-1.3-0.6-2.5-1.1
	c6.1-1.3,11.8-1.7,16.8-3.9c5.4-2.3,10.1-6.1,15-9.4c3.2-2.2,2.7-4-0.6-6.2c-2.8-1.9-8-2.5-6.6-8.8c3.3,2.5,6.3,4.7,9.8,7.4
	c2.6-10.4,2.6-19.6-0.9-28.7C365.3,97.2,359.7,90.3,352.3,84.6z"/>
<path d="M235.4,153.1c1.1-2.2,2.3-4.5,3.4-6.7c2.2-3,5-5.8,6.6-9.2c6.7-14.4,13.2-28.9,19.2-43.6c2-4.9,2.1-10.5,3.7-15.6
	c1.3-4,3.5-7.6,5.3-11.4c0.6,0.3,1.3,0.6,1.9,0.9c-1.8,4-3.5,8-5.3,11.9c0.4,0.2,0.8,0.5,1.3,0.7c1.4-1.5,2.8-3.1,4.2-4.6
	c0.2,0.1,0.4,0.3,0.6,0.4c-4.1,8.7-8.3,17.4-12.4,26.1c-1.8,3.9-3.5,8-5.3,11.9c-2,4.3-4.4,8.4-6.2,12.8c-1.4,3.5-1.8,7.5-3.3,11
	c-1.9,4.4-4.5,8.4-6.7,12.6c-1.6,3.3-2.9,6.7-4.4,10l0.2-0.2C232.5,159.8,237,155.2,235.4,153.1z"/>
<path d="M419.5,262.6c2.3-4,4.3-8.2,6.9-11.9c6.9-9.5,9.1-20.5,10.9-31.8c1.8-11,1.6-21.9-1.5-32.4c-2.2-7.4-5.9-14.3-9-21.4
	c-1.3-2.9-2.7-5.7-3.3-8.9c21.7,26.4,25.4,76.2-2.2,107C420.6,263,420,262.8,419.5,262.6z"/>
<path d="M96.7,217.5c-0.6,1.9-1.2,4.1-2.2,7.2c-2.8-9.3-5.1-16.9-7.7-25.2c2.8,1.3,4.5,2.2,7.6,3.6c0.5-22.5-4.6-43.9-5-65.5
	c0.9,0,1.7-0.1,2.6-0.1c0.6,9.7,1.1,19.3,1.9,29c0.7,8.9,1.8,17.7,2.7,26.6c0.2,2.6,0,5.3,0.4,7.8c0.7,3.7,1.9,7.2,2.8,10.9
	c0.3,1.4,0.3,3-0.1,4.3C99.4,216.7,97.8,216.9,96.7,217.5z"/>
<path d="M308.6,266.8c25-22.5,49.9-45,75.4-68c-0.8,1.9-1,4.1-2.2,5.2c-14.4,13.1-29.1,26-43.5,39.1c-6.3,5.7-11.8,12.2-18.2,17.8
	c-3.2,2.8-7.3,4.5-11,6.7C308.9,267.4,308.8,267.1,308.6,266.8z"/>
<path d="M127.2,257.1c-0.4,3.9-0.7,7.8-1.1,11.7c0.5,0.1,0.9,0.3,1.4,0.4c0.8-1.7,1.5-3.4,2.3-5c0.6-1.1,1.3-2.2,2-3.3
	c0.5,0.3,1.1,0.6,1.6,0.9c-4.2,9.3-8.4,18.5-12.4,27.8c-0.9,2.1-1.1,4.6-1,6.8c0.3,5.9-5.8,13.8-12.1,14.5
	c-3.6-17.7,1.7-35.2,2.1-52.9c0.4,3.7,1.2,7.3,1.1,11c-0.2,4-1.4,7.9-1.9,11.9c-0.5,4-1.2,8-0.9,12c0.3,3.9,1.7,7.7,3,13.2
	c2-2.2,4.4-3.6,4.5-5.2c0.7-10.1,7-18.1,10.2-27.3c0.2-0.5,0-1.2,0-2.3c-1.2,0.5-2.3,1-4.1,1.8c1.4-6,2.7-11.1,4-16.3
	C126.4,256.9,126.8,257,127.2,257.1z"/>
<path d="M104.1,341.6c-5.2,0-8.4-3.6-8.4-9.5c0.1-5.9,3.8-10.2,8.9-10.2c4.9,0,9.3,5.1,9.3,10.8
	C113.9,338.2,110.3,341.6,104.1,341.6z"/>
<path d="M80.1,201.5c6.4,2.7,8.1,8.8,10.1,14.5c1.3,3.6-0.3,6.4-4.4,7.3c0,0,0.2,0.2,0.2,0.2c-2-1.8-4.5-3.3-6-5.5
	C71.5,205.6,59,197.4,48.5,187c-8-7.9-16.5-15.2-24.8-22.8c-0.7-0.7-1.8-0.9-2.7-1.3c0.6-0.7,1.3-1.4,1.9-2
	c21.2,19.2,42.5,38.3,63.7,57.5c0.3-0.2,0.6-0.4,0.9-0.6c-2.6-5.3-5.2-10.6-7.8-15.9C79.8,201.9,80.1,201.5,80.1,201.5z"/>
<path d="M355,331.2c4.4-0.1,9.5,4.3,9.6,8.2c0.1,5.9-3.6,10.1-9.3,10.4c-4.8,0.2-9.4-4.6-9.4-9.8C346,334.3,349.1,331.2,355,331.2z"
	/>
<path d="M238.1,160.4c14-20.1,27.9-40.2,41.8-60.4c0.8-1.2,1.3-2.8,1.5-4.3c0.3-2-0.3-4.4,0.6-6c2.2-4.3,5.1-8.4,7.9-13
	c0.5,1.1,1.4,2.3,1.1,2.7c-3.3,5.5-6.4,10.7-7.4,17.5c-0.9,5.6-5.7,10.7-9.2,15.8c-11.5,16.8-23.2,33.5-34.8,50.2
	c-0.8,1.1-1.8,2.1-2.7,3.2c-0.5-0.3-1-0.6-1.5-0.9c1-1.6,1.9-3.3,2.9-4.9C238.3,160.1,238.1,160.4,238.1,160.4z"/>
<path d="M137,9.6c-0.1,5.1-4.4,9.4-9.3,9.2c-5.1-0.1-8.8-4.6-8.6-10.4c0.2-4.2,4.7-8.7,8.5-8.6C133,0.1,137.1,4.4,137,9.6z"/>
<path d="M556.8,338.8c1.1,0.5,2.3,0.9,3.4,1.4c0.5,0.4,1,0.7,1.5,1.1c-0.3,4.8-0.6,9.5-0.8,14.3c-0.4,9.1-0.7,18.2-1.3,27.2
	c-0.3,4.7-1.1,9.4-3.1,14c0.7-15,1.4-30,2.1-45c-1.1-0.3-2.2-0.5-3.3-0.8c-4.3,11.4-8.6,22.7-12.8,34.1c-0.7-0.3-1.4-0.6-2.1-0.9
	c4.9-12.4,10-24.8,14.8-37.3c0.8-2.1,0.6-4.7,0.8-7C556.3,339.7,556.6,339.2,556.8,338.8z"/>
<path d="M102.8,400.4c0.7-14.7,4.8-29.2,2.4-44c-0.7-0.2-1.4-0.4-2.1-0.6C96,372,88.9,388.2,81.7,404.3c-0.6-0.3-1.2-0.5-1.7-0.8
	c7.9-18.5,15.8-37,23.8-55.8c2.2,2,3.9,3.5,5,4.6c-1.3,16.3-2.6,32.4-3.9,48.4C104.2,400.7,103.5,400.5,102.8,400.4z"/>
<path d="M464.8,66.9c1-0.5,2-1,3-1.5c3-0.7,6-1.5,9.3-2.3c-3.2,6.7-58.8,33.7-68.2,32.6c4.7-2.2,8.6-4.1,12.5-5.9
	c12.2-5.7,24.6-11.4,36.7-17.3C460.6,71.3,462.6,68.8,464.8,66.9z"/>
<path d="M522.9,232.4c-3-0.4-6-1.2-9.1-1.2c-5.3,0-10.7,0.8-16,0.9c-9.5,0.1-19.1-0.1-28.6,0c-2.2,0-4.4,1.1-6.5,0.8
	c-2.5-0.4-5-1.7-7.3-3c-0.7-0.4-1.2-2.2-1-3c0.2-0.6,2-1.2,2.9-1c3.6,0.7,7.1,1.8,10.7,2.7c1.1,0.3,2.3,1,3.4,1
	c11.3-0.3,22.6-0.9,33.8-1c5.6,0,11.2,0.7,16.8,1.3c0.4,0,0.6,1.7,0.9,2.7C522.8,232.5,522.9,232.4,522.9,232.4z"/>
<path d="M290.5,258.2c-10.9-27.9-21.9-55.8-32.8-83.8c0.5-0.2,1-0.4,1.5-0.6C272.5,200.9,282.5,229.3,290.5,258.2z"/>
<path d="M101.9,220.2c4.7-27.5,9.2-54.1,13.7-80.6c0.7,0.1,1.5,0.3,2.2,0.4c-3.1,18.8-6.3,37.7-9.4,56.5c-1,6.3-1.9,12.5-3.2,18.7
	C104.7,217.1,103,218.5,101.9,220.2z"/>
<path d="M355.8,361.7c1.5-0.4,3-0.9,3.9-1.1c0.4,6.3,0.2,11.4,1.2,16.4c2.6,12.8,4.3,25.5,2.5,38.6c-0.3,1.9,0.9,4,0.7,5.9
	c-0.2,2-1.1,4-2.7,5.8c0.6-22.3-1.3-44.1-5.4-65.8L355.8,361.7z"/>
<path d="M577.5,20.6c1,1.3,2.6,2.4,2.6,3.5c0,5,0,10.1-0.9,15.1c-3,16.7-6.4,33.4-9.8,50.1c-0.2,1-1,1.9-1.6,2.9
	c-0.6-0.1-1.1-0.2-1.7-0.3c0.4-3.3,0.5-6.6,1.2-9.8c3.8-16.5,7.9-33,11.4-49.6C579.4,29.3,578.1,25.6,577.5,20.6z"/>
<path d="M214.2,31.2c-20.2-5.1-40.5-10.1-60.7-15.2c-1.1-0.3-2.4-0.1-3.5,0.2c-2.1,0.4-4.1,1-6.2,1.5c-0.2-0.8-0.5-1.7-0.7-2.5
	c1.4-0.5,3-1.8,4.2-1.5c20.8,4.5,41.5,9.1,62.2,13.8c1.9,0.4,3.7,1.3,5.6,2C214.8,30,214.5,30.6,214.2,31.2z"/>
<path d="M338.6,138.4c7.3,1.3,14.8-7.4,21.1,2.3c-3.4,7.6-10.9,7.2-17.7,8.6C341,145.8,339.9,142.4,338.6,138.4z"/>
<path d="M568.6,19.5c0,0-0.2,0.2-0.2,0.2c5.5,0.9,4.1,5.3,2.9,7.9c-4.4,10.2-9.5,20.2-14.1,30.3c-3,6.5-5.6,13.2-8.5,19.7
	c-1.2,2.6-2.7,5-4.1,7.5c-0.7-0.2-1.4-0.4-2.1-0.7c0.3-1.7,0.2-3.6,0.9-5c8.4-17.5,17.1-34.9,25.3-52.5
	C569.7,25,568.7,22,568.6,19.5z"/>
<path d="M424.5,277.3c0.1,1.9,0.6,3.3,0.2,3.6c-18.1,15.3-36.2,30.6-54.4,45.8c-0.2,0.2-1.2-0.7-1.5-0.9
	C387.1,309.8,405.5,293.8,424.5,277.3z"/>
<path d="M355.9,361.5c-2.5,7.9-5.2,15.8-7.3,23.8c-2.8,10.6-5,21.3-7.7,31.9c-0.8,3.2-2.2,6.3-3.3,9.4c-0.5-0.2-0.9-0.3-1.4-0.5
	c5.6-22.9,11.3-45.7,16.9-68.6c0.5-0.1,1-0.1,1.4-0.2c0.4,1.5,0.8,2.9,1.2,4.4C355.8,361.7,355.9,361.5,355.9,361.5z"/>
<path d="M339.6,350c0.9,5.3-0.3,9.1-6.4,10c-0.7,0.1-1.3,0.9-1.9,1.5c-9.3,9.3-18.5,18.7-28,27.8c-4.5,4.3-9.6,8.1-14.4,12.1
	c-0.5-0.4-1-0.9-1.5-1.3c0.7-1.3,1.2-3,2.3-3.9c6.9-6.3,13.9-12.5,20.9-18.7c8.2-7.2,16.6-14.2,24.8-21.4
	C337.2,354.5,338.3,352,339.6,350L339.6,350z"/>
<path d="M342.8,353.4c3.6,1.2,2.1,3.9,1.1,6.2c-4.9,10.6-9.8,21.1-14.9,31.6c-4.6,9.3-9.5,18.5-14.2,27.8c-0.6-0.2-1.3-0.5-1.9-0.7
	c0.2-1.1,0.1-2.3,0.5-3.3c8.9-17.5,17.9-35,26.8-52.6C341.4,360,341.7,357.2,342.8,353.4z"/>
<path d="M373.6,335.7c1.2-1.8,1.9-4.6,3.6-5.4c12.1-5.7,24.3-11,36.5-16.5c6.5-2.9,12.9-6.1,19.4-9.1c1.5-0.7,3.2-1,4.8-1.5
	c0.3,0.5,0.5,1,0.8,1.6c-1.8,1.1-3.4,2.3-5.3,3.1c-11.1,4.9-22.2,9.7-33.3,14.4c-3.8,1.6-8,2.7-11.6,4.7c-5.1,2.7-10,5.9-15,8.9
	L373.6,335.7z"/>
<path d="M329.2,233.4c2.7-4.2,5.1-8.6,8.1-12.5c8.8-11.5,17.9-22.9,27-34.2c0.7-0.9,2.5-0.8,3.8-1.2c-0.1,1.2,0.2,2.7-0.4,3.4
	c-11.3,13.5-22.7,27-34.1,40.4c-1.3,1.5-3,2.6-4.5,3.9L329.2,233.4z"/>
<path d="M62.4,67.7C79.2,51.4,96,35.1,112.8,18.8c0.5,0.6,1.1,1.1,1.6,1.7C97.7,36.8,80.9,53.1,64.2,69.4
	C63.6,68.9,63,68.3,62.4,67.7z"/>
<path d="M373.4,335.8c4,0.2,7.9,0.3,11.9,0.5c2.3,0.1,4.7,0.4,6.9,0.2c8.7-1,17.3-2.6,26.1-3.2c8.5-0.6,17.1-0.1,26.5-0.1
	c-1.1,1.3-1.8,2.8-2.5,2.8c-15.4,0.7-30.7,1.3-46.1,1.7c-6.5,0.2-13,0.1-19.6-0.1c-1.1,0-2.1-1.2-3.1-1.9
	C373.6,335.7,373.4,335.8,373.4,335.8z"/>
<path d="M151.6,10.9c-2.7-0.6-5.4-1.2-8.2-1.8c8.4-5.3,62.9-10.3,72.6-6.3c-21.6,1.2-43.6,0.4-64.5,6.5
	C151.4,9.8,151.5,10.4,151.6,10.9z"/>
<path d="M541.6,201.6c-4.1-5-8.4-9.9-12.2-15.1c-9.6-13.3-18.9-26.9-29-41.2c1.7,1,3.4,1.5,4.5,2.6c10.7,11.5,19.2,24.5,26.9,38.1
	c3,5.3,6.4,10.4,9.6,15.6C541.5,201.7,541.6,201.6,541.6,201.6z"/>
<path d="M467.4,78.9c-1.5,1.8-2.8,3.8-4.5,5.4c-12.3,11.1-24.6,22.2-36.9,33.1c-1.4,1.2-3.4,1.8-5.7,2
	c15.7-13.5,28.1-30.9,47.3-40.4L467.4,78.9z"/>
<path d="M123,332.3c7.4,1.1,14.8,2.1,22.2,3.4c3.3,0.6,6.4,2.3,9.7,2.8c1.7,0.3,3.6-0.8,5.4-1.3c-0.1-0.6-0.3-1.2-0.4-1.9
	c6,0.9,12.1,1.7,18.1,2.6c0.1,0.3,0.1,0.7,0.2,1c-1.4,0.3-2.7,0.7-4.1,1c-1.6,0.4-4.7-1.1-3.4,2.8c-1.4,0.1-2.9,0.6-4.2,0.3
	c-8.5-2.1-16.9-4.8-25.4-6.6c-5.9-1.2-12.1-1.2-18.2-1.8C122.8,334,122.9,333.2,123,332.3z"/>
<path d="M380.1,255.5c-0.9,4.8-1.6,9.7-2.8,14.4c-3.4,13.7-6.9,27.4-10.6,41c-0.6,2-2.6,3.6-4,5.4c-0.9-1-1.9-1.9-2.7-3
	c-0.3-0.4-0.1-1.5-0.1-1.5c6.7-0.5,4.4-6.3,5.5-9.8c4.7-15.5,8.8-31.2,13.1-46.8C379,255.3,379.5,255.4,380.1,255.5z"/>
<path d="M338.5,344.6c-1.6,0.6-3.5,2-4.8,1.6c-20.9-6.3-42.9,0.1-64-4.1c0-0.6,0.1-1.2,0.1-1.8c22.8,0.7,45.7,1.3,68.5,2
	C338.3,343.1,338.4,343.8,338.5,344.6z"/>
<path d="M546.8,345.2c-9.4,21.5-28.7,48-34,47.7C524.3,376.8,535.5,361,546.8,345.2z"/>
<path d="M339.6,349.9c-5.2,2.6-10.7,3.5-16.5,4.4c-8.6,1.2-16.8,4.8-25.1,7.7c-6.1,2.2-12.1,4.9-18.1,7.2c-0.7,0.3-1.8-0.1-2.9-1.5
	c8.7-3.5,17.2-7.7,26.1-10.4c10.4-3.1,21.1-5,31.8-7.3c1.5-0.3,3.2,0,4.8,0C339.6,350,339.6,349.9,339.6,349.9z"/>
<path d="M496.3,373.6c15.3-11.2,30.6-22.5,45.9-33.7c0.3,0.5,0.7,1,1,1.4c-1.6,3.6-1.7,3.3-6.5,4.9c-2.2,0.7-4,2.6-5.9,4
	c-8.9,7.1-17.6,14.3-26.6,21.2c-2.2,1.7-5.2,2.2-7.9,3.2C496.4,374.3,496.3,373.9,496.3,373.6z"/>
<path d="M271.9,42.3c16.3-10.7,32.6-21.5,49-32.2c0.6,0.7,1.1,1.3,1.7,2c-1.6,1.6-2.9,3.5-4.7,4.6c-13.8,8.6-27.6,17-41.5,25.4
	c-1.2,0.7-2.5,1-3.8,1.6C272.4,43.2,272.2,42.7,271.9,42.3z"/>
<path d="M146.8,267.2c-1.5,3-3,6-4.4,9c0.2,0.3,0.4,0.6,0.7,0.9c2.7-2.3,5.4-4.6,8.1-6.9c0.3,0.3,0.6,0.6,0.9,0.9
	c-5.1,5.7-10.7,11-15.2,17.1c-4.3,5.8-11.5,9.8-11.9,18.6c-0.1,2.6-3.5,5.1-6.2,6.8c3.3-11.4,10-20.3,18-28.4
	c1.9-1.9,3.8-3.2,3.3-7.2C139.6,274.3,141.5,268.8,146.8,267.2C146.9,267.2,146.8,267.2,146.8,267.2z"/>
<path d="M505.1,282.8c13.6,12.2,27.5,21.6,37.5,35.1c-0.4,0.4-0.8,0.9-1.1,1.3c-3.5-2.4-9.1-4-10.2-7.2
	c-4.6-12.8-18.8-15.2-25.7-25.2C505.2,286.2,505.3,285.3,505.1,282.8z"/>
<path d="M90.2,336.3c-1,1-2.1,2.4-3.5,3.1c-11,5.7-23.4,5-35.1,7.9c-4,1-8.2,1.5-12.3,2c-1.3,0.2-2.7,0-4.1-1.1
	C53.3,344.4,71.3,340.4,90.2,336.3z"/>
<path d="M347.4,317.5c-5.6-4.1-20.6-45.6-18.2-51C335.3,283.7,341.2,300,347.4,317.5z"/>
<path d="M291,227.5c-5.2-20.6-10.4-41.2-15.5-61.8c0,0,0.7-0.2,1.5-0.5C285.4,185.4,288.4,206.6,291,227.5z"/>
<path d="M554.8,198.3c-2.6-20.9-5.2-41.7-7.8-62.6c0.3-0.3,0.5-0.7,0.8-1c0.8,1,2.1,1.9,2.2,3c1.7,17.1,3.3,34.2,5,51.3
	c0.3,3.1,0.9,6.1,1.4,9.1C555.8,198.2,555.3,198.3,554.8,198.3z"/>
<path d="M369.9,353.6c14,16.1,28,32.2,42,48.3c-0.3,0.4-0.7,0.8-1,1.1c-1.1-0.1-3,0.2-3.3-0.4c-10.9-17.7-25.6-32.3-39.8-47.3
	C368.5,354.8,369.2,354.2,369.9,353.6z"/>
<path d="M134.1,26.9c0.7,23.1,1.3,46.1,2,69.2c-1,0-2,0-3,0.1c0-23.1,0-46.1,0-69.2C133.5,26.9,133.8,26.9,134.1,26.9z"/>
<path d="M199.1,52.2c-2.1-1.1-4.3-2.3-6.4-3.4c-10.9-6.1-21.7-12.6-32.9-18.2c-10.2-5.1-10.4-4.6-12.2-8.9
	c17.6,9.2,35.3,18.4,52.9,27.7C200.1,50.2,199.6,51.2,199.1,52.2z"/>
<path d="M307.5,278.9c11.8,14.7,23,28.8,34.3,42.9C334.3,318.4,306.5,283,307.5,278.9z"/>
<path d="M441.1,364.2c-20.8-5.7-41.5-11.5-62.3-17.2c0.1-0.6,0.3-1.2,0.4-1.8c20.8,5.5,41.6,11.1,62.5,16.6
	C441.5,362.6,441.3,363.4,441.1,364.2z"/>
<path d="M79.8,201.9c-4.8-7.3-9.5-14.6-14.4-21.8c-6-8.7-12.4-17.1-18.5-25.7c-1.2-1.7-2.3-3.6-3.7-5.8c5.3,1,32.1,39.9,37,52.9
	C80.1,201.5,79.8,201.9,79.8,201.9z"/>
<path d="M287.5,64.2c11.8-15.7,23.6-31.4,35.4-47.1c0.6,0.4,1.1,0.8,1.7,1.2c-11.7,15.8-23.3,31.6-35,47.5
	C288.9,65.2,288.2,64.7,287.5,64.2z"/>
<path d="M385.6,413.2c-1.4-3.1-2.9-6-4.1-9.2c-4.6-12.3-9.1-24.6-13.7-36.8c-0.5-1.3-2.3-2-3.1-3.3c-1.3-2.2-4-4.9,1.3-6
	c7.2,18.2,14.3,36.2,21.4,54.2C386.8,412.5,386.2,412.8,385.6,413.2z"/>
<path d="M408.9,263.8c-11.3,15.2-22.1,29.7-32.7,44.1C376.1,301.8,402.4,265.4,408.9,263.8z"/>
<path d="M328.3,24.7c2.3-2.9,4.7-5.9,7-8.8c0.6,0.3,1.2,0.6,1.8,0.9c2.4,16.9-2.8,33.3-4.2,50c-2.2-8,1-15.6,1.7-23.4
	c0.7-7.7,0.2-15.5,0.2-22.3C332.9,22.1,330.6,23.4,328.3,24.7L328.3,24.7z"/>
<path d="M244,378.9c0.4,0.4,0.8,0.7,1.2,1.1c0,1.7,4,4.5-1.2,4.8c-2-1.1-4-2.3-6-3.4c-8.1-5.4-16.3-10.8-24.4-16.2
	c-1.8-1.2-3.4-2.8-5.1-4.2c0.2-0.2,0.3-0.4,0.5-0.6c4.6,2.7,9.1,5.7,13.8,8.1C229.8,372.2,236.9,375.5,244,378.9z"/>
<path d="M158.2,81.6c-7.5-19.5-14.6-37.8-21.7-56.1c0.7-0.3,1.4-0.5,2.2-0.8C141.9,44.5,158.5,59.6,158.2,81.6z"/>
<path d="M525,266c1.3,1.1,3.1,1.9,3.8,3.3c5.4,11.3,10.7,22.7,16,34c0.8,1.8,1.8,3.5,2,5.6c-9.9-12.6-15-27.8-23.3-41.3
	C524,267.1,524.5,266.5,525,266z"/>
<path d="M126.1,33.1c-4.8,20.8-9.5,41.7-14.3,62.5c-0.7-0.2-1.4-0.3-2.1-0.5c4.9-20.7,9.7-41.4,14.6-62.1
	C124.9,33,125.5,33,126.1,33.1z"/>
<path d="M181.6,83.5c7.7,16,15.5,32,23.2,48.1c-0.7,0.3-1.4,0.7-2.1,1c-7.8-16-15.5-32-23.3-47.9C180.1,84.3,180.9,83.9,181.6,83.5z
	"/>
<path d="M343.7,14.3c1.6,4.4,3.8,8.7,4.6,13.2c2.3,12.7,4.1,25.6,6.1,38.4c0.1,0.7-0.3,1.4-0.8,3.8c-7-18.7-5-37.7-11.8-54.7
	C342.4,14.7,343.1,14.5,343.7,14.3z"/>
<path d="M346.7,9.3c0.7-0.1,2.6-0.9,3.7-0.3c1.7,0.9,3.1,2.6,4,4.3c4.5,8.1,8.6,16.5,13.1,24.6c2.9,5.3,6,10.5,8.1,16.7
	c-0.9-0.7-2.2-1.1-2.7-2c-6.6-12.5-13-25.1-19.8-37.5C351.9,13,349.3,11.6,346.7,9.3z"/>
<path d="M354,314.7c-1.1-18.1-2.2-36.3-3.4-54.9C354.6,263.6,357,295.1,354,314.7z"/>
<path d="M551.6,92.9c-0.2,2.7-0.4,5.1-0.6,8c-2.6-0.2-4.9-0.4-7.6-0.7c-0.2-6.4-1.9-11.2-9.6-10.6c-1,0.1-2.3-2.3-3.5-3.5
	c0.4-0.5,0.8-1,1.1-1.5C538.1,87.3,544.6,90,551.6,92.9z"/>
<path d="M551.4,306.3c0-3.6,0.3-7.3-0.1-10.8c-1.1-10.1-2.4-20.2-3.8-30.2c-0.3-2.2-1.3-4.2-1.6-6.4c-0.2-1.6,0.3-3.3,1.2-4.9
	C554.2,276.7,555.7,306.1,551.4,306.3z"/>
<path d="M118.7,24.1c-8.1,16.3-13.4,34-25.4,48.4c7.9-16.4,15.9-32.9,23.8-49.3C117.7,23.5,118.2,23.8,118.7,24.1z"/>
<path d="M540.8,183.4c-5.8-14.7-11.6-29.4-17.3-44.1c0.6-0.3,1.2-0.6,1.8-0.9c2,4.5,4.2,8.9,6,13.4c2.1,5.2,3.8,10.5,5.7,15.7
	c1.9,5,3.8,9.9,5.8,14.9C542.2,182.7,541.5,183,540.8,183.4z"/>
<path d="M452.4,65c-3.3,1.4-6.4,3.4-9.8,4.1c-14,2.9-28.1,5.5-42.1,8.1c-1,0.2-2.1-0.1-4.8-0.2c19.4-7.5,38.2-9.2,56.8-11.8
	C452.6,65.2,452.4,65,452.4,65z"/>
<path d="M231.9,364.1c-12.4-13.8-24.8-27.6-37.3-41.4c0.4-0.3,0.7-0.7,1.1-1c14.5,11.9,24.6,27.9,37.4,41.4
	C232.7,363.5,232.3,363.8,231.9,364.1z"/>
<path d="M500,6.1c19.8,0.9,39,1.8,58,2.6C554.2,11.4,506.9,9.6,500,6.1z"/>
<path d="M575.9,395.8c-2.9-17.3-5.7-34.6-8.4-50.8C571.4,349.7,578.1,383.4,575.9,395.8z"/>
<path d="M332.9,326.5c-14.1-8.5-27.9-16.8-41.6-25.1c0.3-0.5,0.6-1,0.9-1.5c4.8,2.5,9.7,4.6,14.3,7.4c6.3,3.9,12.3,8.3,18.5,12.2
	c1.5,0.9,3.5,1.1,5.3,1.3C333.7,321.3,334.5,323.4,332.9,326.5z"/>
<path d="M136.6,324.4c7.7-0.7,15-1.4,22.4-2.2c3.4,6.7,9.2,1.7,15.1,3.7c-1.4,1.2-2.6,3-4,3.1c-3.5,0.4-7.2,0.1-10.8,0
	c-0.4,0-1,0.1-1.2,0c-5.5-8.6-14-1.4-20.6-3.9C137.4,325.2,137.3,325,136.6,324.4z"/>
<path d="M53.3,325.6c6.7,1.2,13.3,2.6,20,3.6c2.6,0.4,5.3,0.1,9.5,0.1c-4.3-3.6-7.2-6.1-10.1-8.6c0.4-0.5,0.8-1,1.2-1.5
	c5,4,10,8.1,15.3,12.4c-12.9,3.2-24.2-2.2-35.7-6L53.3,325.6z"/>
<path d="M99.3,19.3c-5.6,2.5-11.1,5-16.7,7.5c-7.6,3.4-15.1,7-22.7,10.3c-1.5,0.7-3.4,0.4-5.2,0.6c-0.1-0.7-0.2-1.4-0.3-2.1
	c15-5.3,30-10.7,45-16L99.3,19.3z"/>
<path d="M88.1,104.5c2.8-10.5-8.9-9.1-12.2-14.5c0.4-0.5,0.8-1,1.3-1.4c4.9,2.3,10.1,4.4,14.7,7.2c1.8,1.1,3.5,3.9,3.4,5.9
	c-0.1,1.3-3.4,2.5-5.2,3.7C89.5,105,88.8,104.8,88.1,104.5z"/>
<path d="M152.3,32.5c10.4,12.3,20.7,24.7,31.1,37c-0.4,0.5-0.9,1.1-1.3,1.6c-1.1-0.8-2.4-1.3-3.2-2.4c-5-6.7-9.7-13.8-15-20.3
	c-4.1-5.1-8.9-9.6-13.4-14.4C151.1,33.5,151.7,33,152.3,32.5z"/>
<path d="M328.3,24.7c2.5,6.8-2.3,11.9-4.4,17.5c-3.1,8.6-7.2,16.8-11,25.2c-0.5,1.2-1.6,2.1-3.6,2.5C315.7,54.8,322,39.7,328.3,24.7
	C328.3,24.7,328.3,24.7,328.3,24.7z"/>
<path d="M596.4,383.5c-7-12.9-14.1-25.9-21.1-38.8c8.4,12.2,17.1,24.3,23.2,37.8C597.8,382.8,597.1,383.2,596.4,383.5z"/>
<path d="M114.5,349c7.5,16.9,7,34.3,8.4,51.3C120.1,383.5,117.4,366.6,114.5,349z"/>
<path d="M47.5,10.9c17.4,0,34.7,0,52.1,0c0,0,0,0.1,0.1,0.1c-17.4,0.8-34.7,1.6-52.1,2.3C47.5,12.5,47.5,11.7,47.5,10.9z"/>
<path d="M392.7,35.2c-9.1-7.3-18.2-14.6-27.3-21.9c0.4-0.5,0.7-1,1.1-1.5c4.9,3.6,9.9,7,14.6,10.8c4.4,3.6,10.2,5.9,13.7,10.6
	C394.1,33.9,393.4,34.5,392.7,35.2z"/>
<path d="M28.4,235.5c1.8-0.8,3.5-2.1,5.3-2.2c9-0.1,18,0,27,0.2c1.3,0,2.7,1,4,1.5c-0.1,0.5-0.2,1-0.3,1.5c-12-0.4-24-0.8-36-1.2
	C28.4,235.3,28.4,235.5,28.4,235.5z"/>
<path d="M294,371.7c-2.5,6.2-10.7,6.2-13.6,11.9c-2.2-0.8-3.9-1.4-6.9-2.5c7-4,13-7.5,18.9-10.9C293,370.7,293.5,371.2,294,371.7z"
	/>
<path d="M67.9,268.6c6.6,11.6,13.2,23.2,19.9,34.8c-0.6,0.3-1.2,0.7-1.7,1c-6.6-11.6-13.3-23.1-19.9-34.7
	C66.7,269.3,67.3,269,67.9,268.6z"/>
<path d="M362.3,200.2c4.5-5.4,9.1-10.7,13.6-16.1c0.3,7.9-5.3,14.8-12.1,17.4C363.4,201.1,362.8,200.6,362.3,200.2z"/>
<path d="M120,176.5c6.9-0.6,12.9-1.2,18.8-1.6c0.6,0,1.5,1,1.8,1.7c0.2,0.5-0.2,1.6-0.7,2C138.1,180.5,123.1,179.5,120,176.5z"/>
<path d="M394.6,363.2c8.3,4.3,16.6,8.5,24.8,12.9c3.3,1.8,6.4,4.2,9.6,6.3c-0.3,0.5-0.6,0.9-0.9,1.4c-4.2-2.4-8.5-4.6-12.6-7.2
	c-7-4.4-13.8-9.1-20.8-13.6C394.7,363.1,394.6,363.2,394.6,363.2z"/>
<path d="M330.6,408.7c-4.3,5.8-8,10.7-11.7,15.7C317.8,415.4,323.1,408.2,330.6,408.7z"/>
<path d="M520.1,368.7c-2.5,2.4-4.7,4.6-6.9,6.8c-0.4,0.4-0.6,1.2-1.1,1.4c-4.1,1.5-8.3,2.9-14.1,4.8c3.5-3,6.2-5.6,9.2-7.8
	c3.2-2.4,6.6-4.4,10.3-6.9C518.2,367.5,519.4,368.3,520.1,368.7z"/>
<path d="M581.6,151.1c0.5-2.3,1.1-4.6,1.5-6.7c5.6,2.3,11.2,4.5,16.8,6.8c-0.2,0.7-0.4,1.4-0.6,2.1
	C593.6,152.6,587.8,151.8,581.6,151.1z"/>
<path d="M591.4,274.3c-3.7-5,1.4-15.5,9.1-16.2C597.5,263.5,594.5,268.7,591.4,274.3z"/>
<path d="M473,426.8c1.4-4.9,2.9-9.7,4.3-14.6c1.3-4.8,2.6-9.5,4-14.8c0.5,0.6,2,1.7,1.8,2.3c-2.4,9.3-5,18.5-7.5,27.7
	C474.7,427.3,473.9,427,473,426.8z"/>
<path d="M308.2,51.9c-4.5,5.9-8.5,11.2-13.1,17.3C293.9,62.5,302.9,50.3,308.2,51.9z"/>
<path d="M329.1,233.2c-6.7,9.1-13.4,18.2-20,27.2c-0.6-0.4-1.1-0.8-1.7-1.2c2.4-3.9,4.4-8.1,7.3-11.5c4.5-5.1,9.7-9.6,14.6-14.4
	C329.2,233.4,329.1,233.2,329.1,233.2z"/>
<path d="M293.2,42.3c-5.6,2.8-11.2,5.5-18.1,8.9c1.7-5.5,6.1-7.8,9.4-10.3c1.9-1.4,5.3-1,8-1.4C292.8,40.5,293,41.4,293.2,42.3z"/>
<path d="M47.2,424.7c-2.8-9.7,7.3-13.9,5.7-22.5C57.8,406.1,56.2,411.3,47.2,424.7z"/>
<path d="M80.4,369.1c-6,9.2-11.9,18.5-17.9,27.7c-0.8-0.5-1.6-1.1-2.4-1.6c6.3-9,12.6-18,19-27C79.5,368.5,80,368.8,80.4,369.1z"/>
<path d="M509.3,402.6c-3.1,7-6.3,14-10.1,22.5c-2.7-10.9,5.6-16.1,7.3-23.6C507.4,401.9,508.4,402.2,509.3,402.6z"/>
<path d="M46.6,382.8c3.3-6.3,12.1-11.5,19.7-10.5c-7,4.5-12.9,8.2-18.7,11.9C47.2,383.7,46.9,383.2,46.6,382.8z"/>
<path d="M80.8,179.6c-5-12.3-10-24.7-15-37C72.6,154.2,79.2,165.9,80.8,179.6z"/>
<path d="M573.7,251.5c4.7,2.6,4.7,2.6,1.2,18.1c-1.2-0.6-2.5-1.1-3.7-1.7C572,262.4,572.8,257,573.7,251.5z"/>
<path d="M137.1,348.7c9.6,5.1,18.8,10.7,26.2,18.7c-0.4,0.5-0.8,1-1.2,1.5C153.7,362.2,145.4,355.5,137.1,348.7z"/>
<path d="M297.8,85.8c-3.9,5.8-4.6,13.6-10.7,18c-0.8-0.5-1.5-0.9-2.3-1.4c3.5-6,7.1-12.1,10.6-18.1C296.2,84.8,297,85.3,297.8,85.8z
	"/>
<path d="M134.8,277.6c-3.9-7.6,4.6-12,4.3-18.7C144.9,266.9,136.5,271.4,134.8,277.6z"/>
<path d="M31.2,416.2c0.8-6.1,1.7-12.2,2.5-18.3c0.6,0.1,1.1,0.2,1.7,0.3C37.4,404.8,38.3,411.1,31.2,416.2z"/>
<path d="M196.4,347.5c-6.4-4.3-12.8-8.6-19.8-13.4c1.6-0.8,3.2-2.2,3.6-1.9c5.9,4.4,11.7,9,17.5,13.5
	C197.2,346.3,196.8,346.9,196.4,347.5z"/>
<path d="M532.3,380.6c-4.6,6.3-8.9,12.3-13.8,19.1C517.4,393.5,527,380.9,532.3,380.6z"/>
<path d="M325.4,55.8c-2.7,5.3-5.3,10.5-8.4,16.6c-0.6-1.6-1.4-2.6-1.2-3.3c1.1-4,2.1-8.1,3.7-11.9c1.2-3,3.6-3.4,5.9-1.2L325.4,55.8
	z"/>
<path d="M598.3,162.9c-5.9-0.5-11.8-1.1-18.1-1.6c0.1-2,0.2-3.8,0.3-4.9c6.2,1.4,12.2,2.7,18.3,4.1
	C598.6,161.3,598.5,162.1,598.3,162.9z"/>
<path d="M438.1,23.3c-3.4-2-6.7-4.1-10.2-6c-4.5-2.6-9-5-13.4-7.6c-0.8-0.5-1.2-1.7-1.3-2.9c9.7,3.7,18.4,8.6,25.4,16.1
	C438.4,23,438.3,23.2,438.1,23.3z"/>
<path d="M141.3,157.1c-5.4-1.2-10.9-2.4-16.3-3.6c-0.5-1-1.1-2.1-1.6-3.1c1.5-0.6,3.2-1.9,4.4-1.5c5,1.7,9.8,3.9,14.7,5.9
	C142,155.5,141.7,156.3,141.3,157.1z"/>
<path d="M132.2,220.2c7.5-0.7,12.1-7.5,20-4.7C146.3,221.4,138.6,223.5,132.2,220.2z"/>
<path d="M44.7,374.6c8.2-5.5,16.5-11.1,24.7-16.6c0.3,0.4,0.6,0.9,0.8,1.3c-7.9,6.1-15.6,12.5-24.5,16.9
	C45.4,375.6,45,375.1,44.7,374.6z"/>
<path d="M86.3,405.1c1.7-5.6,3.3-11.2,5.2-16.7c0.2-0.7,1.9-1,3-1.4c0.4,1.2,1.5,2.7,1.1,3.5c-2.3,5.1-4.9,10.1-7.5,15.1
	C87.5,405.5,86.9,405.3,86.3,405.1z"/>
<path d="M125,201c6.3-1.4,12.5-2.7,19.4-4.2c-0.1,1.4,0,3.3-0.4,3.3c-6,1.6-12,3-18.1,4.4C125.6,203.3,125.3,202.1,125,201z"/>
<path d="M47.2,331.6c-7-1.8-13.2,3.6-18.1-2.5C34.2,326,41.8,326.5,47.2,331.6z"/>
<path d="M264.2,68.1c-0.9,3.7-4.7,6.1-1.2,10.6c1.2,1.5-1.9,6.4-3.1,9.8C255.7,83.7,258.3,69.9,264.2,68.1z"/>
<path d="M259.6,349.6c0-12.1,0-24.1,0-36.2c0.9,0,1.8,0,2.7,0.1c-0.7,12.2-1.5,24.4-2.2,36.6C259.9,349.9,259.8,349.8,259.6,349.6z"
	/>
<path d="M28.8,398.7c1.2,10.2-2.6,19.3-7.3,28.2C24,417.5,26.4,408.1,28.8,398.7z"/>
<path d="M482.5,326.2c6.4-0.7,13-2.5,18.7,2.7C494.7,329.4,488.1,331.3,482.5,326.2z"/>
<path d="M504.9,336.8c-7.4,2.3-14.8,4.5-23.6,7.1c1.1-2,1.4-3.4,2.2-3.9C489.1,336.9,501.3,335.2,504.9,336.8z"/>
<path d="M400.1,108.7c1.9-5.8,2.5-6.2,15.7-10.1C415.9,102.3,415.9,102.3,400.1,108.7z"/>
<path d="M76,383.2c1.3,7.1-4.1,14.2-12,16.4C68.5,393.5,72.2,388.3,76,383.2z"/>
<path d="M282.6,72.6c-1.9,7-3.9,14-6.1,22C273.1,89,275,82.3,282.6,72.6z"/>
<path d="M438.7,403.2c4.9,3.7,5,14.8,0,18.4C438.7,415.3,438.7,409.4,438.7,403.2z"/>
<path d="M74.4,309.7c-8.9-7.5-17.8-14.9-26.7-22.4c0.4-0.5,0.8-0.9,1.2-1.4c8.9,7.4,17.8,14.9,26.7,22.3
	C75.2,308.8,74.8,309.2,74.4,309.7z"/>
<path d="M551.1,381.2c-3.3,7-6.7,14.1-10,21.1c-0.9-0.4-1.7-0.8-2.6-1.3c3.4-6.9,6.8-13.8,10.3-20.7
	C549.5,380.6,550.3,380.9,551.1,381.2z"/>
<path d="M488.8,175.2c-5.8-3.3-10.8-6-15.5-9c-0.9-0.5-1.1-2.2-1.6-3.3c0.8-0.2,2-0.9,2.5-0.6c4.6,3,9.2,6.2,13.7,9.4
	C488.3,172.1,488.3,173.2,488.8,175.2z"/>
<path d="M208.5,361.1c-9.1-5.8-18.3-11.7-27.4-17.5c0.3-0.5,0.6-0.9,0.8-1.4c9.2,5.9,19.7,9.5,27.1,18.3
	C208.8,360.7,208.7,360.9,208.5,361.1z"/>
<path d="M276.4,324.1c6.1,1.4,12.2,2.8,18.4,4.3c-2.4,3.8-13.2,2.3-18.9-2.5C276.1,325.3,276.2,324.7,276.4,324.1z"/>
<path d="M256.2,11.5c7.4-5.1,16.1-1.6,23.9-4.2c0.1,0.6,0.2,1.1,0.3,1.7c-7.9,1.5-15.8,3-23.7,4.5C256.5,12.9,256.4,12.2,256.2,11.5
	z"/>
<path d="M73.3,263.9c2.7,5.7,5.5,11.4,8.9,18.6C75.1,278.5,69.9,266.3,73.3,263.9z"/>
<path d="M75.3,407.2c-2.4-4.7,3.4-18.4,10.2-24C82,391.7,78.8,399.1,75.3,407.2z"/>
<path d="M146.4,286.8c-0.7-3.7-0.7-3.7,8.4-14.6C158.5,275.9,158.3,276.2,146.4,286.8z"/>
<path d="M526.5,401.9c3.5-6.6,6.9-13.3,10.4-19.9c0.8,0.4,1.5,0.8,2.3,1.2c-3.4,6.6-6.9,13.3-10.3,19.9
	C528.1,402.7,527.3,402.3,526.5,401.9z"/>
<path d="M491.1,370.2c4.9-5,10.6-8.1,17.1-9.3C503.3,365.9,497.6,368.9,491.1,370.2z"/>
<path d="M368.4,251.8c4.4,1.4,4.8,12,0,18.7C368.4,263.6,368.4,257.7,368.4,251.8z"/>
<path d="M248.5,95.5c2.1-8.8,4.2-17.6,6.3-26.5c0.8,0.2,1.6,0.4,2.4,0.6c-2.2,8.7-4.5,17.4-6.7,26.1
	C249.8,95.7,249.2,95.6,248.5,95.5z"/>
<path d="M514.9,131.1c3.6,6.9,7.3,13.7,10.9,20.6c-0.7,0.4-1.5,0.7-2.2,1.1c-3.1-7.1-8.5-13.1-10.8-20.6
	C513.5,131.8,514.2,131.4,514.9,131.1z"/>
<path d="M411.1,121.1c2.8-8.1,9.5-13,16.5-12.1C421.5,113.5,416.3,117.3,411.1,121.1z"/>
<path d="M487.7,305.7c11.1-0.5,14.6,1.2,16.1,8C497.8,310.7,492.7,308.2,487.7,305.7z"/>
<path d="M469.8,242.7c-5.1-0.8-9.8-1.5-15.9-2.5C463.5,235.3,468.9,236,469.8,242.7z"/>
<path d="M420.8,293.8c-0.4-6.4,0.5-7.5,9.3-11.9C431.1,285.5,431.1,285.5,420.8,293.8z"/>
<path d="M115,256.3c4.3,3.7,4.6,9.4,0,16.6C115,267.5,115,262.1,115,256.3z"/>
<path d="M467.5,79c4.4-5.4,8.8-10.8,13.2-16.2c1,0.9,2,1.8,2.9,2.6c-1.1,1.6-2,3.4-3.3,4.9c-1.9,2.2-4.4,4.1-6,6.5
	c-1.9,2.9-4.1,3.2-6.9,2C467.4,78.9,467.5,79,467.5,79z"/>
<path d="M579.9,184.9c6-0.8,12-1.7,18-2.5c0.1,1,0.3,1.9,0.4,2.9c-6.1,0.9-12.3,1.8-18.4,2.7C579.9,187,579.9,186,579.9,184.9z"/>
<path d="M187.7,79.5c2.1,6.6,3.9,12.3,5.7,18C185.1,87.9,183.8,83.7,187.7,79.5z"/>
<path d="M356.9,267.9c-0.4-3.8-0.9-7.7-1-11.5c0-1.2,1.5-2.4,2.3-3.6c0.6,1.2,1.6,2.3,1.8,3.6c0.4,2.4,0.7,4.9,0.5,7.4
	c-0.1,1.5-1.1,3-1.7,4.5C358.1,268.1,357.5,268,356.9,267.9z"/>
<path d="M520.1,379.2c-4.4,4.9-8.3,9.3-12.2,13.7C507.3,386.7,515.4,378.2,520.1,379.2z"/>
<path d="M342.4,51c-1.1,7.4-2,13.8-2.9,20.3C335.8,65.5,336.8,55.8,342.4,51z"/>
<path d="M405.1,256.7c-1.4,8-6.1,13.9-11.4,13.5c3.4-5,6.6-9.7,9.9-14.5C404.1,256.1,404.6,256.4,405.1,256.7z"/>
<path d="M487.2,395c5.2,8.2-5.3,14.2-1.7,22.3c-1.2-1-3.5-2.3-3.3-3C483.5,408.2,485.3,402.2,487.2,395z"/>
<path d="M565.9,379.9c-0.7,6.6-1.3,11.7-2,17.5c-0.9-0.2-2.7-0.2-3-0.8C559.5,393.4,562,383,565.9,379.9z"/>
<path d="M450.3,415.8c-0.3-6.1-0.7-12.2-1-18.4c0.9,0,1.7,0,2.6,0c0,6.2,0,12.4,0,18.6C451.3,416,450.8,415.9,450.3,415.8z"/>
<path d="M130.1,404.2c-4.2-7.5-5.6-14.9-2.7-20.1c1.6,7.3,2.9,13.5,4.2,19.7C131.1,403.9,130.6,404.1,130.1,404.2z"/>
<path d="M506.3,276.9c7.9-0.4,6.8,8.2,12.2,9.9C514.8,289.3,508.2,283.9,506.3,276.9z"/>
<path d="M471.8,413.2c0.9-5.9,1.9-11.8,2.8-17.7c1,0.2,2.1,0.4,3.1,0.6c-1.1,5.8-2.2,11.7-3.3,17.5
	C473.6,413.5,472.7,413.3,471.8,413.2z"/>
<path d="M443.5,358.5c-6.1-1.6-11.2-2.9-16.3-4.1C434.3,351,441.1,352.8,443.5,358.5z"/>
<path d="M296.3,160.3c0.7,5.4,1.4,10.7,2.1,16.2C293.8,177.1,292.2,170.3,296.3,160.3z"/>
<path d="M306.1,326.6c11.5,1.4,22.1,5.2,32.7,9.3c-0.2,0.5-0.3,1-0.5,1.5c-10.7-3.7-21.4-7.4-32.1-11L306.1,326.6z"/>
<path d="M306.8,401.1c-5.3,4-9.9,7.4-14.5,10.9c-0.5-0.5-1-1-1.5-1.5c3.9-3.9,7.8-7.8,11.9-11.5C303,398.8,304.7,400,306.8,401.1z"
	/>
<path d="M57.6,64.1c4.2-3.7,8.4-7.4,12.6-11.2c0.7,0.7,1.3,1.4,2,2.1c-4.2,3.7-8.3,7.4-12.5,11.1C59,65.5,58.3,64.8,57.6,64.1z"/>
<path d="M434.5,291.7c0.4,2.6,1.5,5.4,0.9,5.8c-3.3,2.3-6.9,4-10.6,5.7c-0.4,0.2-1.5-0.9-2.4-1.5
	C426.3,298.6,429.9,295.6,434.5,291.7z"/>
<path d="M464.5,258c4.6-2,7.5-3.6,10.5-4.4c1-0.3,3.6,1.3,3.6,2c-0.1,3-0.8,6-1.3,8.5c-0.8-1.4-1.6-4.3-3.4-5.4
	C471.9,257.6,468.9,258.2,464.5,258z"/>
<path d="M325.3,56c1.2,0.7,3.5,1.3,3.5,2.1c0.3,5.4,0.2,10.8-0.5,16.2c-2-6-4-12-2.8-18.5C325.4,55.8,325.3,56,325.3,56z"/>
<path d="M223.2,84.8c-0.3-6.4-0.7-12.7-1-19.1c0.9-0.1,1.8-0.1,2.7-0.2c0.4,6.3,0.7,12.7,1.1,19C225,84.7,224.1,84.7,223.2,84.8z"/>
<path d="M139.4,187.8c-5.6,1.2-11.3,2.4-17.4,3.7C125,186.3,130.2,184.9,139.4,187.8z"/>
<path d="M426.3,363.3c11.3,4.1,11.3,4.1,11.5,6.5c-4.7-0.7-9.5-1.3-14.2-2C424.4,366.4,425.2,365.1,426.3,363.3z"/>
<path d="M200.7,338.1c-5-3.2-10-6.4-15.1-9.7C189,325.8,197,330.6,200.7,338.1z"/>
<path d="M436,116.7c-4.6,3.5-9.3,7.1-14.1,10.7C421.7,122.2,428.6,116.2,436,116.7z"/>
<path d="M279,311.4c5.8,2.3,11.5,4.5,17.3,6.8c-0.2,0.7-0.4,1.4-0.6,2c-5.9-1.9-11.8-3.8-17.8-5.7
	C278.2,313.5,278.6,312.4,279,311.4z"/>
<path d="M51.2,341.3c-7.1,1.4-14.2,2.9-21.3,4.3c-0.1-0.6-0.3-1.3-0.4-1.9C36.6,341.9,43.5,339.1,51.2,341.3z"/>
<path d="M329,283c-6-1.9-9.9-9-7.6-15.1C323.7,272.7,326.2,277.5,329,283z"/>
<path d="M532.6,260.1c1.8,6.2,3.3,11.3,4.9,16.8C532.3,274.9,528.9,265,532.6,260.1z"/>
<path d="M521.2,75.3c4-4.5,8-9.1,12-13.6c0.7,0.6,1.3,1.1,2,1.7c-3.9,4.6-7.8,9.2-11.7,13.8C522.7,76.6,521.9,75.9,521.2,75.3z"/>
<path d="M202.4,373.3c-10-2.6-19.9-5.3-29.9-7.9c0.2-0.6,0.3-1.1,0.5-1.7c9.9,2.7,19.9,5.4,29.8,8.1
	C202.6,372.3,202.5,372.8,202.4,373.3z"/>
<path d="M97.4,74c1,2.1,2.1,3.4,1.8,4.1c-1.4,3.7-3,7.3-4.7,10.8c-0.3,0.7-1.4,0.9-2.2,1.4c-0.3-1-1.2-2.2-0.9-2.9
	C93,83.4,94.9,79.5,97.4,74z"/>
<path d="M93.8,256.7c2.4,1.2,2.4,1.2,3.8,19.8C94.4,274.2,92.8,266,93.8,256.7z"/>
<path d="M579.3,269.3c1.2-5.4,2.3-10.9,3.5-16.5C586.7,256.5,585.8,262,579.3,269.3z"/>
<path d="M313.3,52.5c-2.8,6.4-5.6,12.8-8.3,19.2c-1.9-8.2,4.4-13.3,6.4-20C312,52,312.6,52.3,313.3,52.5z"/>
<path d="M86.4,278.6c-0.1-6.3-7-11.5-3.5-18.3c0.7-0.1,1.3-0.2,2-0.3c1,6.1,2,12.2,3,18.3C87.4,278.3,86.9,278.5,86.4,278.6z"/>
<path d="M355,193.7c-0.1-5.9,6.4-14.7,13.1-17C363.2,183,359.4,188,355,193.7z"/>
<path d="M66.4,79.3c3.9-9.1,9.3-12.8,14.8-10.9C76,72.2,71.2,75.7,66.4,79.3z"/>
<path d="M447.3,325.5c-4.9,5-15.3,4.9-17.8,0.8C435.2,326,440.6,325.8,447.3,325.5z"/>
<path d="M163.8,379.6c6,0,11.7,0,18.9,0C173.7,383.4,166.5,383.3,163.8,379.6z"/>
<path d="M390,250.3c-1.9,5.5-3.8,11.1-5.7,16.7C380.4,262.8,382.3,256.4,390,250.3z"/>
<path d="M151.4,349.5c4.8,4.2,9.7,8.4,14.5,12.6c-0.5,0.6-1,1.2-1.5,1.7c-5-4.1-10.1-8.2-15.1-12.2
	C150.1,351,150.8,350.2,151.4,349.5z"/>
<path d="M539.3,255.6c4.2,0.4,7.7,13.1,5.1,20.3C542.6,268.5,541,262.1,539.3,255.6z"/>
<path d="M256.9,190.4c-2.1-5.7-4.2-11.4-6.3-17.2c1-0.3,2-0.7,3-1c1.8,5.8,3.7,11.7,5.5,17.5C258.3,189.9,257.6,190.1,256.9,190.4z"
	/>
<path d="M268.9,314.6c-5.8-2.1-4.3-6.7-4.1-10.7c0-0.9,1.4-1.7,2.1-2.5c0.9,0.9,2.4,1.9,2.4,2.8
	C269.5,307.6,269.1,310.9,268.9,314.6z"/>
<path d="M542.6,150.1c-1.6-6.2-3.3-12.3-5.1-18.9C542.3,133.4,544.3,140,542.6,150.1z"/>
<path d="M53.1,392.8c3.9-4.2,7.9-8.4,11.8-12.7c0.6,0.5,1.2,1.1,1.8,1.6c-3.7,4.4-7.5,8.9-11.2,13.3
	C54.7,394.3,53.9,393.6,53.1,392.8z"/>
<path d="M335.8,256.1c0.7,5.7,1.3,10.7,2,16.9C332.2,267.4,331.6,259.9,335.8,256.1z"/>
<path d="M394.7,363.1c-9.7-1.1-15-3.5-20.1-9c0.2-0.5,0.5-0.9,0.7-1.4c6.4,3.5,12.9,7,19.3,10.6
	C394.6,363.2,394.7,363.1,394.7,363.1z"/>
<path d="M528.6,130.3c2.1,5.4,4.1,10.7,6.2,16.1c-0.8,0.3-1.5,0.6-2.3,0.9c-2.2-5.4-4.5-10.8-6.7-16.1
	C526.7,130.8,527.6,130.5,528.6,130.3z"/>
<path d="M11.8,395.3c3.7,6.5,3.5,14.2-1,19.4C11.2,407.7,11.4,402,11.8,395.3z"/>
<path d="M467.2,217.2c-3.7-0.5-7.5-0.7-11.1-1.6c-1.2-0.3-1.8-2.6-2.7-3.9c1.4,0,2.8-0.4,4,0c3.5,1.1,6.9,2.6,10.3,3.9
	C467.5,216.1,467.4,216.6,467.2,217.2z"/>
<path d="M274.6,349.1c5.6-2.4,11.3-4.3,15.1,3.5C284.4,351.3,279.5,350.2,274.6,349.1z"/>
<path d="M281,61.6c3.6-4.6,7.1-9.2,11.2-14.4c0.3,6.2-1.9,9.3-9.9,15.4C281.9,62.3,281.4,62,281,61.6z"/>
<path d="M108.4,387.8c1-0.1,2.4-0.2,4.9-0.5c-1.5,5.5-2.7,10.3-4,15.1c-0.3,0-0.6,0-0.9,0C108.4,397.6,108.4,392.9,108.4,387.8z"/>
<path d="M25.7,396.8c-0.9,5.4-1.8,10.8-2.8,16.2c-0.6-0.1-1.3-0.2-1.9-0.3c0.5-5.5,1-11,1.5-16.5C23.6,396.4,24.7,396.6,25.7,396.8z
	"/>
<path d="M516.2,270.7c7.1,0.6,8.8,6.1,11,11.1c-0.5,0.4-0.9,0.8-1.4,1.2C522.6,278.9,519.4,274.8,516.2,270.7z"/>
<path d="M34.7,304.9c5.1,2.9,10.2,5.8,15.3,8.7c-0.4,0.7-0.9,1.5-1.3,2.2c-5.1-2.8-10.3-5.6-15.4-8.4
	C33.7,306.5,34.2,305.7,34.7,304.9z"/>
<path d="M467.3,172.3c5.5,3.5,10.9,7,16.4,10.4c-0.4,0.6-0.8,1.2-1.1,1.7c-5.6-3.3-11.2-6.7-16.8-10
	C466.3,173.8,466.8,173.1,467.3,172.3z"/>
<path d="M278.9,18.8c-3.9,6.3-10.5,5.6-14.6,8.9C262.8,24.3,262.8,24.3,278.9,18.8z"/>
<path d="M504.9,44.7c5.3-2.6,10.6-5.3,15.9-7.9c0.4,0.7,0.7,1.4,1.1,2.1c-5.2,2.8-10.4,5.7-15.6,8.5
	C505.8,46.5,505.4,45.6,504.9,44.7z"/>
<path d="M328.8,426.9c1.8-6.1,3.2-10.8,4.6-15.7C337.4,413.8,335.4,421,328.8,426.9z"/>
<path d="M384.8,14.4c5.2-4.3,7.3-4,18.1,2.5C396.1,16,390.8,15.2,384.8,14.4z"/>
<path d="M346.5,57.2c1.1,5.7,2.1,11,3.2,16.5C343.9,69.6,342.1,60.5,346.5,57.2z"/>
<path d="M141.9,370.7c3.7,5.6,6.8,10.1,9.8,14.6C147.4,385.7,141.7,377.9,141.9,370.7z"/>
<path d="M132.5,133.7c5.7,2.5,10.7,4.8,16.1,7.3C141.9,143,135.1,139.9,132.5,133.7z"/>
<path d="M85.3,323c-3.2-3.4-6.5-6.8-9.7-10.2c0.7-0.6,1.4-1.3,2.2-1.9c3.3,3.4,6.5,6.9,9.8,10.3C86.8,321.8,86,322.4,85.3,323z"/>
<path d="M508.9,300.5c-5.1,2.4-11.9-2-12.6-8.2C500.5,295,504.4,297.5,508.9,300.5z"/>
<path d="M431.1,339.8c4.3,0,8.7,0,13,0c0,0.8,0.1,1.7,0.1,2.5c-4.3,0.2-8.6,0.5-13,0.7C431.2,341.9,431.1,340.8,431.1,339.8z"/>
<path d="M440.3,309.7c0.2,5.1-4.8,7.6-14.8,6.6C431.4,313.7,435.8,311.7,440.3,309.7z"/>
<path d="M395.2,29.1c-5.4-3.8-10.8-7.5-16.2-11.3c0.3-0.5,0.7-1,1-1.6c5.6,3.5,11.1,7,16.7,10.6C396.2,27.6,395.7,28.4,395.2,29.1z"
	/>
<path d="M429.3,424.9c-1.4-5.8-2.8-11.7-4.2-17.5c0.8-0.2,1.5-0.4,2.3-0.6c1.4,5.8,2.9,11.6,4.3,17.4
	C430.9,424.5,430.1,424.7,429.3,424.9z"/>
<path d="M154.8,310.8c5.2-1.7,10.5-3.5,15.7-5.2c0.3,0.8,0.6,1.7,0.9,2.5c-5.2,1.6-10.4,3.3-15.5,4.9
	C155.5,312.3,155.2,311.6,154.8,310.8z"/>
<path d="M306.3,326.5c-8.1-1.2-16.2-2.4-24.3-3.6c0.1-0.8,0.3-1.6,0.4-2.4c7.9,2,16.2,1.8,23.7,6.1
	C306.1,326.6,306.3,326.5,306.3,326.5z"/>
<path d="M197.6,316.7c6.5,1,7.7,7.3,11.5,11c-0.4,0.4-0.8,0.9-1.2,1.3c-3.9-3.5-7.7-7.1-11.6-10.6
	C196.8,317.9,197.2,317.3,197.6,316.7z"/>
<path d="M323.4,160.8c-1.4,5.6-2.8,11.1-4.2,16.7c-0.8-0.2-1.6-0.4-2.4-0.6c1.3-5.6,2.6-11.1,3.8-16.7
	C321.5,160.4,322.5,160.6,323.4,160.8z"/>
<path d="M346.6,184.5c2.4-4.9,4.8-9.7,7.2-14.6c0.8,0.4,1.7,0.8,2.5,1.2c-2.5,4.8-4.9,9.5-7.4,14.3
	C348.2,185.2,347.4,184.9,346.6,184.5z"/>
<path d="M382.2,190.4c0.5,5.2-2.4,8.3-12.1,13.8C374.1,199.6,378.2,195,382.2,190.4z"/>
<path d="M192.1,42.1c6-2,14.1,2.3,14,7C201.6,46.9,197.4,44.8,192.1,42.1z"/>
<path d="M486.4,356.1c4.4-5.5,10-6.9,16.2-6.7c0.2,0.5,0.3,1,0.5,1.5C497.5,352.6,492,354.4,486.4,356.1z"/>
<path d="M222.6,317.4c-2.4-4-4.8-8.1-7.2-12.1c0.7-0.4,1.4-0.8,2-1.2c5,2.4,5.1,7.8,6.8,12.3C223.8,316.7,223.2,317,222.6,317.4z"/>
<path d="M128.9,81.7c0,5.5,0,10.9,0,16.3C125.7,96,125.7,96,128.9,81.7z"/>
<path d="M33.8,359c5.3-2.4,10.5-4.9,15.8-7.3c0.3,0.7,0.7,1.4,1,2.2c-5.2,2.4-10.5,4.9-15.7,7.3C34.5,360.4,34.1,359.7,33.8,359z"/>
<path d="M406.9,387.6c3.4,3.6,6.9,7.2,10.2,10.9c0.4,0.4,0.3,1.6,0,2c-0.3,0.4-1.7,0.6-1.9,0.4c-3.4-3.9-6.6-8-9.9-12
	C405.8,388.5,406.4,388.1,406.9,387.6z"/>
<path d="M554.8,252c0,5.4,0,10.8,0,16.6C550.4,263.7,550.5,254.3,554.8,252z"/>
<path d="M584,95.4c0.3-5.8,0.7-11.7,1-17.5c0.6,0,1.2,0.1,1.8,0.1c0,5.8,0,11.6,0,17.4C585.8,95.4,584.9,95.4,584,95.4z"/>
<path d="M390.5,42.2c-3.7-3.2-7.4-6.4-11.2-9.6c3.9-2.5,7.1-0.2,12.2,8.4C391.3,41.4,390.9,41.8,390.5,42.2z"/>
<path d="M283.1,30.5c-2.8,4.9-8.7,5.6-12.7,8.8c-0.5-0.7-1-1.4-1.5-2.1c4.3-2.8,8.6-5.5,12.9-8.3C282.2,29.4,282.6,30,283.1,30.5z"
	/>
<path d="M170.1,301.9c-7.9,2.5-15.7,5.1-23.6,7.6c-0.2-0.4-0.3-0.9-0.5-1.3c7.8-2.8,15.6-5.6,23.4-8.4
	C169.6,300.5,169.8,301.2,170.1,301.9z"/>
<path d="M122,166.1c1.7-2.7,12.1-3.1,18,0C134,166.1,128.1,166.1,122,166.1z"/>
<path d="M181.7,392.8c-5.8,0-11.7,0-17.5,0c0-0.6,0-1.1,0-1.7c5.9,0,11.8,0,17.7,0C181.8,391.7,181.7,392.3,181.7,392.8z"/>
<path d="M504.4,139.1c3.6,4.3,7.1,8.6,10.7,12.9c-0.6,0.5-1.1,1-1.7,1.5c-3.7-4.2-7.3-8.4-11-12.6
	C503,140.3,503.7,139.7,504.4,139.1z"/>
<path d="M174.2,85.9c5.4,3.7,4.9,10.5,7.6,15.6c-0.5,0.3-1.1,0.6-1.6,0.9c-2.5-5.2-5.1-10.3-7.6-15.5
	C173.1,86.5,173.6,86.2,174.2,85.9z"/>
<path d="M533.8,81.7c3-4.4,6-8.9,8.9-13.3c0.7,0.4,1.4,0.9,2.2,1.3c-2.9,4.4-5.7,8.9-8.6,13.3C535.4,82.5,534.6,82.1,533.8,81.7z"/>
<path d="M347.5,423.9c-2,0.8-3.6,1.5-5.6,2.3c1.1-4.1,2.2-8,3.3-12C352,416.9,345.8,421.4,347.5,423.9z"/>
<path d="M237.7,83.2c0-5.9,0-11.8,0-17.7c0.3,0,0.5-0.1,0.8-0.1c0,5.9,0,11.8,0,17.7C238.2,83.1,237.9,83.1,237.7,83.2z"/>
<path d="M557.7,91c1.6-4.5,3.3-9,4.9-13.4C564.6,85.2,561.9,91.1,557.7,91z"/>
<path d="M283.6,302.4c6.1-2,8.7,4.8,13.4,6.3c-0.2,0.6-0.5,1.1-0.7,1.7c-4.5-2-9-4-13.5-6C283.1,303.7,283.3,303.1,283.6,302.4z"/>
<path d="M392.6,417.3c-1.6-4.4-3.2-8.9-4.8-13.3c0.9-0.3,1.7-0.6,2.6-0.9c1.6,4.5,3.3,9,4.9,13.5
	C394.4,416.9,393.5,417.1,392.6,417.3z"/>
<path d="M148.9,362.1c3.7,4,7.3,7.9,11.4,12.4c-1,0.6-2.8,1.9-2.9,1.8c-3.3-4.3-6.5-8.8-9.7-13.2
	C148.1,362.7,148.5,362.4,148.9,362.1z"/>
<path d="M410.2,70.3c-5.6,0.9-11.3,1.8-16.9,2.7c-0.1-0.9-0.3-1.7-0.4-2.6c5.7-0.8,11.3-1.6,17-2.4
	C409.9,68.7,410.1,69.5,410.2,70.3z"/>
<path d="M487.4,313c5,0.6,10,1.3,14.9,1.9c-0.1,0.8-0.2,1.6-0.3,2.5c-5-0.6-10-1.2-14.9-1.8C487.2,314.7,487.3,313.9,487.4,313z"/>
<path d="M462.4,412.6c0.4-5.8,0.9-11.5,1.3-17.3c0.8,0.1,1.5,0.1,2.3,0.2c-0.4,5.7-0.8,11.4-1.2,17.1
	C464,412.7,463.2,412.6,462.4,412.6z"/>
<path d="M401.9,410.2c-2-4.8-3.6-8.6-5.3-12.6C402.2,398.6,405.3,405,401.9,410.2z"/>
<path d="M215.7,9.2c-4.6,4.5-9.3,2.7-14.1,0C206.3,9.2,211,9.2,215.7,9.2z"/>
<path d="M213.1,72.8c0,6,0,12,0,18.1c-0.3,0-0.5,0.1-0.8,0.1c-0.7-6-1.3-12-2-18.1C211.3,72.9,212.2,72.8,213.1,72.8z"/>
<path d="M336.7,182.5c2.4-6.8,4.5-12.7,6.6-18.9C345.3,167.8,341.7,178.3,336.7,182.5z"/>
<path d="M583.6,399.7c-4.9-4.5-4.4-10.6-4.4-17.7c2.2,6.3,4.1,11.7,6,17C584.7,399.2,584.2,399.4,583.6,399.7z"/>
<path d="M40,370.4c4.9-2.9,9.7-5.9,14.6-8.8c0.3,0.5,0.5,0.9,0.8,1.4c-5.1,2.5-8.2,8.4-14.2,9.6C40.9,371.9,40.5,371.2,40,370.4z"/>
<path d="M157.8,343.1c4.6,2.4,9.2,4.8,13.8,7.1c-0.4,0.7-0.8,1.4-1.1,2.2c-4.7-2.3-9.5-4.6-14.2-6.8
	C156.8,344.8,157.3,343.9,157.8,343.1z"/>
<path d="M461.5,183.4c4.8,3.2,8.8,5.9,12.8,8.6c-0.3,0.5-0.5,1.1-0.8,1.6c-4-2-8.1-3.8-11.9-6C461,187.2,461.5,184.9,461.5,183.4z"
	/>
<path d="M469.4,205.6c-4.2-2.8-10.1-2.8-13.4-7.2c0.4-0.6,0.7-1.3,1.1-1.9c4.4,2.4,8.9,4.9,13.3,7.3
	C470.1,204.4,469.7,205,469.4,205.6z"/>
<path d="M245.2,310.6c2.3-3.9-5-9.6,3.4-13.4c-0.5,5.2-0.9,9.4-1.3,13.7C246.6,310.8,245.9,310.7,245.2,310.6z"/>
<path d="M327.7,179c1.9-5.2,3.9-10.5,5.8-15.7c0.7,0.2,1.4,0.5,2.1,0.7c-2,5.3-3.9,10.7-5.9,16C329,179.7,328.4,179.3,327.7,179z"/>
<path d="M46.7,140.9c3.9,5.2,7.8,10.5,11.7,15.7c-0.5,0.4-0.9,0.8-1.4,1.1c-3.9-5.1-7.9-10.2-11.8-15.2
	C45.7,141.9,46.2,141.4,46.7,140.9z"/>
<path d="M65.7,42.2c-4.3,2.6-8.7,5.1-13.2,7.7C53.3,45.5,58.9,41.6,65.7,42.2z"/>
<path d="M118.1,391.1c0.7,4.7,1.4,9.4,2.1,14c-0.9,0.1-1.8,0.2-2.7,0.4c-0.6-4.7-1.2-9.4-1.8-14.1
	C116.4,391.3,117.3,391.2,118.1,391.1z"/>
<path d="M201,93.4c-1.1-5.4-2.2-10.9-3.3-16.3c0.7-0.1,1.4-0.3,2.1-0.4c1.2,5.4,2.4,10.7,3.7,16.1C202.7,92.9,201.9,93.2,201,93.4z"
	/>
<path d="M528.5,51.2c-5.2,4.1-9.1,7.1-13,10.2C513.1,58.1,518.3,53.4,528.5,51.2z"/>
<path d="M380.9,51.3c-3.2-3.8-6.3-7.5-9.5-11.3c0.5-0.5,1-0.9,1.5-1.4c3.4,3.7,6.9,7.4,10.3,11.1C382.4,50.3,381.7,50.8,380.9,51.3z
	"/>
<path d="M555.6,75.2c-2.1,4.5-4.1,9-6.2,13.5c-0.8-0.4-1.6-0.7-2.5-1.1c2.2-4.5,4.3-8.9,6.5-13.4C554.1,74.5,554.8,74.9,555.6,75.2z
	"/>
<path d="M518,15.6c-4.6-1-9.6,3.9-13.9-1.9c4.8,0,9.5,0,14.3,0C518.3,14.3,518.2,14.9,518,15.6z"/>
<path d="M551.6,116.9c-8.6,0.4-9.5-2-4.8-12C545.1,110.2,544.3,115.1,551.6,116.9z"/>
<path d="M595,389.1c-5.4-2.9-7.3-9.2-4.6-13C592,380.7,593.5,384.9,595,389.1z"/>
<path d="M77.9,85.3c3-4.2,5.9-8.5,8.9-12.7c0.6,0.4,1.3,0.9,1.9,1.3c-2.9,4.3-5.7,8.6-8.6,12.9C79.4,86.3,78.6,85.8,77.9,85.3z"/>
<path d="M188.3,355.5c-4.6-2.1-9.1-4.2-13.7-6.4c0.4-0.8,0.7-1.5,1.1-2.3c4.6,2.1,9.1,4.3,13.7,6.4C189,354,188.6,354.8,188.3,355.5
	z"/>
<path d="M570.8,399.6c-0.5-5.1-1-10.2-1.4-15.3c0.7-0.1,1.3-0.2,2-0.2c0.7,5.1,1.4,10.1,2.1,15.2
	C572.5,399.3,571.6,399.5,570.8,399.6z"/>
<path d="M346.7,255.3c0.6,5,1.1,10,1.7,15.6C344.6,268.4,343.7,262.4,346.7,255.3z"/>
<path d="M494.9,146c3.2,4.1,6.3,8,9.9,12.7C498,157,493.1,150.4,494.9,146z"/>
<path d="M303.4,415.5c3.4-4,5.5-9.4,12-10.5c-3.4,4-6.9,8-10.3,11.9C304.5,416.5,304,416,303.4,415.5z"/>
<path d="M280.4,161.8c4.6,1.5,6.7,8.1,4.8,15.2C283.5,171.5,282.1,167,280.4,161.8z"/>
<path d="M135.2,380.8c2,4.4,4.1,8.8,6.1,13.2c-0.7,0.3-1.5,0.7-2.2,1c-2.1-4.4-4.1-8.7-6.2-13.1
	C133.7,381.5,134.4,381.1,135.2,380.8z"/>
<path d="M407.2,57.5c-4.7,0-9.3,0-14,0C394.4,55.1,394.4,55.1,407.2,57.5z"/>
<path d="M181.2,413.7c-5.4,2.1-10.7,4.5-17.2,1.4c6.1-1.1,11.5-2.1,16.9-3.1C181,412.5,181.1,413.1,181.2,413.7z"/>
<path d="M423.5,272.3c-3.4,3.8-6.5,7.3-9.9,11.2C413.3,278,419.4,271.2,423.5,272.3z"/>
<path d="M73.5,150.2c-1.7-4.9-3.5-9.8-5.2-14.6c0.7-0.2,1.3-0.5,2-0.7c1.9,5,3.7,9.9,5.6,14.9C75.1,149.9,74.3,150,73.5,150.2z"/>
<path d="M257.9,299.3c-0.3,5.1-0.5,10.2-0.8,15.4c-0.5,0-0.9-0.1-1.4-0.1c0-5.1,0-10.2,0-15.3C256.4,299.3,257.2,299.3,257.9,299.3z
	"/>
<path d="M46.7,162c-3.7-4.2-7.1-7.9-10.8-12C40.7,150,46.1,156.1,46.7,162z"/>
<path d="M369.1,62.1c-1.9-5.2-3.7-9.9-5.4-14.7C368.7,50.1,372.3,59.1,369.1,62.1z"/>
<path d="M216.9,22.6c-6.2,4.1-11.3-0.4-16.7-2.2C205.7,21.1,211.3,21.9,216.9,22.6z"/>
<path d="M167.9,367.5c4.6,1.2,9.2,2.4,13.7,3.6c-0.2,0.7-0.4,1.5-0.6,2.2c-4.6-1.1-9.2-2.3-13.8-3.4
	C167.5,369.1,167.7,368.3,167.9,367.5z"/>
<path d="M395.9,81.7c5.7-1.7,11.4-3.4,17.2-5.1c0.2,0.6,0.4,1.1,0.5,1.7c-5.7,1.8-11.5,3.7-17.2,5.5
	C396.3,83.1,396.1,82.4,395.9,81.7z"/>
<path d="M288.3,359.9c-4.7,1.7-9.5,3.3-15.5,5.4c3.8-7.2,10.2-4.8,14.7-7C287.8,358.8,288,359.3,288.3,359.9z"/>
<path d="M356.2,56.3c2.5,5.2,4.7,10,7.1,14.9C358.7,70.2,355.6,63.7,356.2,56.3z"/>
<path d="M481.6,320.6c-4.3-1.6-6.8-3.2-4.3-6.9c0.7-1.1,2.3-1.6,3.4-2.4C481,314.2,481.2,317.2,481.6,320.6z"/>
<path d="M82.5,134.9c1.3,5.5,2.6,10.9,3.9,16.4c-0.6,0.2-1.1,0.3-1.7,0.5c-1.5-5.4-3-10.8-4.6-16.2
	C80.9,135.4,81.7,135.1,82.5,134.9z"/>
<path d="M53.4,325.4c-6.8-0.6-13.6-1.2-20.4-1.8c0.1-0.6,0.1-1.1,0.2-1.7c6.9-0.5,13.7,0.2,20.1,3.6
	C53.3,325.6,53.4,325.4,53.4,325.4z"/>
<path d="M126.8,210.1c5.2-1.9,10.3-3.8,15.5-5.7c0.2,0.7,0.5,1.3,0.7,2c-5.1,1.9-10.3,3.8-15.4,5.6
	C127.3,211.4,127,210.8,126.8,210.1z"/>
<path d="M298.5,385.8c-4.6,3.7-9.2,7.4-13.7,11.1c-0.4-0.4-0.7-0.9-1.1-1.3c4.5-3.8,8.9-7.5,13.4-11.3
	C297.5,384.8,298,385.3,298.5,385.8z"/>
<path d="M300.9,301.6c-4.2-2.4-7.8-4.5-11.6-6.7C293.2,292.1,298.4,295,300.9,301.6z"/>
<path d="M299.6,284.5c3.6,3.4,7.1,6.7,10.7,10.1c-0.2,0.3-0.5,0.5-0.7,0.8c-3.8-3.2-7.6-6.4-11.4-9.6
	C298.7,285.3,299.1,284.9,299.6,284.5z"/>
<path d="M310.1,160.5c-0.3,4.6-0.7,9.2-1,13.9c-0.6,0-1.2-0.1-1.8-0.1c0-4.6,0-9.2,0-13.9C308.2,160.5,309.1,160.5,310.1,160.5z"/>
<path d="M368.4,425.7c-0.3-3.9-0.5-7.7-0.8-11.6c0.8-0.1,1.6-0.1,2.4-0.2c0.4,4,0.9,7.9,1.3,11.9
	C370.3,425.9,369.3,425.8,368.4,425.7z"/>
<path d="M184.3,363.1c-4.8-1-9.5-2-14.3-3c0.1-0.7,0.3-1.4,0.4-2.1c4.8,0.9,9.6,1.9,14.3,2.8C184.6,361.5,184.5,362.3,184.3,363.1z"
	/>
<path d="M413.8,36.9c-8,2.6-14.2,1.4-16.6-2.6C402.4,35.1,407.4,35.9,413.8,36.9z"/>
<path d="M408.2,11c4.6,2.1,8.7,3.9,13.1,5.8C416.4,19.1,409.3,15.9,408.2,11z"/>
<path d="M171.2,107c-3.9-4.9-7.8-9.8-11.7-14.6c0.5-0.4,1-0.7,1.5-1.1c3.9,4.8,7.9,9.7,11.8,14.5C172.3,106.2,171.8,106.6,171.2,107
	z"/>
<path d="M173.2,317.1c-1.5,2.9-9.3,3.3-17.6,0C162.5,317.1,167.7,317.1,173.2,317.1z"/>
<path d="M415.7,383.2c3.6,3.4,7.2,6.8,10.8,10.2c-1,1-1.9,1.9-2.9,2.9c-2.9-4.1-5.9-8.1-8.8-12.2
	C415.1,383.8,415.4,383.5,415.7,383.2z"/>
<path d="M433.5,381.2c-4.3-2.7-8.2-5-12.3-7.6C427.1,372.6,431.8,375.4,433.5,381.2z"/>
<path d="M135.1,346.4c-4.3-2.1-8.5-4.2-12.8-6.4c0.3-0.5,0.5-1.1,0.8-1.6C128.7,338,131.8,342.3,135.1,346.4z"/>
<path d="M120.1,83.3c-1.2,4.5-2.3,9.1-3.5,13.6c-0.6-0.1-1.1-0.3-1.7-0.4c0.9-4.7,1.7-9.3,2.6-14C118.3,82.8,119.2,83.1,120.1,83.3z
	"/>
<path d="M503.5,1.5c5,0,9.9,0,14.9,0c0,0.5,0,1,0,1.4c-5,0-10,0-14.9,0C503.4,2.4,503.4,2,503.5,1.5z"/>
<path d="M99.5,19.5c3.6-4.8,8.6-3.4,13.2-3.7c0.1,0.8,0.2,1.7,0.4,2.5c-4.6,0.3-9.2,0.7-13.8,1C99.3,19.3,99.5,19.5,99.5,19.5z"/>
<path d="M61.3,273.2c2.6,3.8,5.1,7.6,7.7,11.4c-0.4,0.3-0.9,0.6-1.3,1c-3-3.6-7.4-6.1-8.2-11.3C60.1,273.9,60.7,273.6,61.3,273.2z"
	/>
<path d="M539.1,62.7c4.1-5.8,8.1-11.5,12.1-17.3c0.4,0.3,0.8,0.5,1.2,0.8c-4,5.6-8,11.3-12.1,16.9C540.2,63.1,539.7,62.9,539.1,62.7
	z"/>
<path d="M76.3,353.7c4.1-3.1,8.2-6.2,12.2-9.3c0.5,0.7,1,1.4,1.5,2c-4.1,3-8.3,6.1-12.4,9.1C77.2,355,76.7,354.3,76.3,353.7z"/>
<path d="M549.8,398.8c1.1-4.9,2.2-9.7,3.2-14.6c0.6,0.1,1.3,0.3,1.9,0.4c-0.9,5-1.9,9.9-2.8,14.9
	C551.4,399.3,550.6,399.1,549.8,398.8z"/>
<path d="M196.4,63.8c-3.3-3.4-6.7-6.7-10-10.1c0.6-0.6,1.2-1.2,1.7-1.7c3.5,3.2,7,6.4,10.4,9.7C197.8,62.3,197.1,63.1,196.4,63.8z"
	/>
<path d="M186.4,69.6c-2.7-3.4-5.5-6.8-8.2-10.2c0.5-0.5,1.1-0.9,1.6-1.4c2.8,3.3,5.6,6.6,8.5,9.9C187.7,68.5,187.1,69.1,186.4,69.6z
	"/>
<path d="M365.7,320.7c2.4-4,4.8-8,7.1-12c0.6,0.3,1.1,0.6,1.7,0.9c-2.1,4.2-4.2,8.3-6.4,12.5C367.3,321.7,366.5,321.2,365.7,320.7z"
	/>
<path d="M533.5,399.9c2.3-4.5,4.5-9,6.8-13.5c0.6,0.3,1.2,0.6,1.8,0.8c-2.2,4.6-4.3,9.1-6.5,13.7
	C534.9,400.5,534.2,400.2,533.5,399.9z"/>
<path d="M101.6,386.7c-0.9,5.1-1.8,10.2-2.7,15.3c-0.7-0.1-1.4-0.3-2.1-0.4c1-5.1,1.9-10.1,2.9-15.2
	C100.3,386.4,101,386.6,101.6,386.7z"/>
<path d="M561.8,341.3c-0.5-0.4-1-0.7-1.5-1.1c0.5-0.5,0.9-0.9,1.4-1.4C561.7,339.7,561.8,340.5,561.8,341.3z"/>
<path d="M565.9,5.4c0.2,0.7,0.4,1.3,0.7,2C566.3,6.7,566.1,6,565.9,5.4z"/>
<path d="M20.1,62.4c0.2,1.9,1.3,4.2,0.5,5.5c-0.8,1.2-3.3,1.6-5.2,1.7c-3.4,0.3-6.9,0.1-10.4-0.7C10.6,67.9,16.6,68.2,20.1,62.4
	C20.2,62.4,20.1,62.4,20.1,62.4z"/>
</svg>
